<?xml version="1.0" encoding="UTF-8" standalone="no"?>
<!-- Created with Inkscape (http://www.inkscape.org/) -->

<svg
   xmlns:dc="http://purl.org/dc/elements/1.1/"
   xmlns:cc="http://creativecommons.org/ns#"
   xmlns:rdf="http://www.w3.org/1999/02/22-rdf-syntax-ns#"
   xmlns:svg="http://www.w3.org/2000/svg"
   xmlns="http://www.w3.org/2000/svg"
   xmlns:xlink="http://www.w3.org/1999/xlink"
   xmlns:sodipodi="http://sodipodi.sourceforge.net/DTD/sodipodi-0.dtd"
   xmlns:inkscape="http://www.inkscape.org/namespaces/inkscape"
   width="210mm"
   height="297mm"
   viewBox="0 0 210 297"
   version="1.1"
   id="svg8"
   inkscape:version="0.92.4 (5da689c313, 2019-01-14)"
   sodipodi:docname="drawing.svg">
  <defs
     id="defs2">
    <linearGradient
       inkscape:collect="always"
       id="linearGradient4747">
      <stop
         style="stop-color:#800000;stop-opacity:1"
         offset="0"
         id="stop4743" />
      <stop
         style="stop-color:#ffcc00;stop-opacity:1"
         offset="1"
         id="stop4745" />
    </linearGradient>
    <radialGradient
       inkscape:collect="always"
       xlink:href="#linearGradient4747"
       id="radialGradient4749"
       cx="-131.98866"
       cy="765.67487"
       fx="-131.98866"
       fy="765.67487"
       r="277.42437"
       gradientTransform="matrix(-9.3226964e-4,-1.9436322,1.5484434,-7.3630655e-4,-1307.9245,478.82127)"
       gradientUnits="userSpaceOnUse" />
  </defs>
  <sodipodi:namedview
     id="base"
     pagecolor="#ffffff"
     bordercolor="#666666"
     borderopacity="1.0"
     inkscape:pageopacity="0.0"
     inkscape:pageshadow="2"
     inkscape:zoom="0.70710678"
     inkscape:cx="-201.1453"
     inkscape:cy="647.55769"
     inkscape:document-units="mm"
     inkscape:current-layer="layer1"
     showgrid="false"
     inkscape:showpageshadow="true"
     showborder="false"
     showguides="false"
     inkscape:window-width="1366"
     inkscape:window-height="705"
     inkscape:window-x="-8"
     inkscape:window-y="-8"
     inkscape:window-maximized="1" />
  <metadata
     id="metadata5">
    <rdf:RDF>
      <cc:Work
         rdf:about="">
        <dc:format>image/svg+xml</dc:format>
        <dc:type
           rdf:resource="http://purl.org/dc/dcmitype/StillImage" />
        <dc:title></dc:title>
      </cc:Work>
    </rdf:RDF>
  </metadata>
  <g
     inkscape:label="Layer 1"
     inkscape:groupmode="layer"
     id="layer1">
    <path
       style="fill:url(#radialGradient4749);fill-opacity:1;fill-rule:nonzero;stroke:#b00000;stroke-width:0;stroke-miterlimit:4;stroke-dasharray:none;stroke-opacity:1"
       d="m -122.19727,321.07227 c -3.047,0 -5.5,6.94245 -5.5,15.5664 v 346.82031 c 0,8.62394 2.453,15.56641 5.5,15.56641 3.047,0 5.5,-6.94247 5.5,-15.56641 V 336.63867 c 0,-8.62395 -2.453,-15.5664 -5.5,-15.5664 z m -73.75195,148.59375 c -0.19273,-0.003 -0.3805,0.0191 -0.56445,0.0684 -2.94317,0.78859 -3.51523,8.12886 -1.28321,16.45898 l 50.63477,188.97266 c 2.23204,8.33008 6.39863,14.4019 9.3418,13.61328 2.94318,-0.78863 3.51524,-8.13086 1.2832,-16.46094 L -187.17188,483.3457 c -2.09252,-7.80948 -5.88634,-13.63198 -8.77734,-13.67968 z m 147.503908,0 c -2.891003,0.0477 -6.682855,5.87022 -8.775391,13.67968 l -50.634767,188.97266 c -2.23205,8.33012 -1.65997,15.67232 1.2832,16.46094 2.94318,0.78862 7.109752,-5.28316 9.341801,-13.61328 l 50.634766,-188.97266 c 2.232039,-8.33009 1.659975,-15.67039 -1.283203,-16.45898 -0.183949,-0.0493 -0.373675,-0.0716 -0.566406,-0.0684 z m 64.800781,30.02929 a 9.4488168,9.4488168 0 0 0 -9.449219,9.44922 9.4488168,9.4488168 0 0 0 9.449219,9.44727 9.4488168,9.4488168 0 0 0 9.447265,-9.44727 9.4488168,9.4488168 0 0 0 -9.447265,-9.44922 z M -340.02734,520.9082 a 9.4488168,9.4488168 0 0 0 -9.44922,9.44922 9.4488168,9.4488168 0 0 0 9.44922,9.44922 9.4488168,9.4488168 0 0 0 9.44922,-9.44922 9.4488168,9.4488168 0 0 0 -9.44922,-9.44922 z m 341.3828088,9.95899 c -2.8977847,-0.002 -7.6527935,4.48062 -11.4257808,11.01562 l -78.921876,136.69531 c -4.311965,7.46855 -5.65831,14.70697 -3.019531,16.23047 2.638778,1.5235 8.232953,-3.26192 12.544922,-10.73047 L -0.54492188,547.38281 C 3.7670656,539.91423 5.1153406,532.67389 2.4765625,531.15039 2.1467152,530.95995 1.7694378,530.86753 1.3554688,530.86719 Z M -245.75,530.86914 c -0.41397,3.5e-4 -0.78929,0.0908 -1.11914,0.28125 -2.63879,1.52351 -1.29245,8.76386 3.01953,16.23242 l 78.92188,136.69531 c 4.31199,7.46858 9.90808,12.25398 12.54687,10.73047 2.63876,-1.52349 1.29246,-8.76188 -3.01953,-16.23047 l -78.92188,-136.69531 c -3.77298,-6.53499 -8.52995,-11.01609 -11.42773,-11.01367 z m -77.83203,12.51563 c -0.68644,0.0451 -1.24837,0.26204 -1.65235,0.66601 -2.15454,2.15457 1.01913,8.79844 7.11719,14.89649 l 138.33789,138.33789 c 6.09806,6.09805 12.74192,9.27175 14.89649,7.11718 2.15454,-2.15454 -1.02108,-8.79842 -7.11914,-14.89648 L -310.33789,551.16992 c -4.95467,-4.95466 -10.26957,-7.98068 -13.24414,-7.78515 z m 402.187499,0 c -3.053031,0.18947 -8.015153,3.14016 -12.660157,7.78515 l -138.33789,138.33594 c -6.098071,6.09807 -9.271755,12.74192 -7.117188,14.89648 2.15454,2.15454 8.798413,-1.01911 14.896485,-7.11718 L 73.724609,558.94727 c 6.098055,-6.09806 9.271728,-12.74195 7.117188,-14.89649 -0.403981,-0.40398 -0.965903,-0.62089 -1.652344,-0.66601 -0.185911,-0.0122 -0.380449,-0.0126 -0.583984,0 z m -412.904299,77.6914 c -1.88951,-0.0776 -3.26462,0.35225 -3.83594,1.3418 -1.52349,2.63876 3.26191,8.23295 10.73047,12.54492 l 136.69532,78.92188 c 7.46856,4.31198 14.70893,5.66024 16.23242,3.02148 1.52351,-2.6388 -3.26386,-8.23492 -10.73242,-12.54687 L -321.9043,625.4375 c -4.66785,-2.69498 -9.24533,-4.23195 -12.39453,-4.36133 z m 424.20508,0 c -3.149195,0.12938 -7.726681,1.66634 -12.394531,4.36133 l -136.697266,78.92188 c -7.468581,4.31196 -12.253978,9.90808 -10.730469,12.54687 1.52349,2.63876 8.761887,1.29051 16.230469,-3.02148 L 83.011719,634.96289 c 7.468562,-4.31198 12.253955,-9.90616 10.730469,-12.54492 -0.571316,-0.98955 -1.946421,-1.41943 -3.835938,-1.3418 z m -482.89844,49.05664 c -3.5999,0.0781 -6.11694,0.98313 -6.56054,2.63867 -0.78862,2.9432 5.28318,7.10976 13.61328,9.3418 l 188.97265,50.63477 c 8.3301,2.23204 15.67037,1.65998 16.45899,-1.28321 0.78863,-2.9432 -5.28318,-7.10975 -13.61328,-9.34179 L -383.0918,671.48828 c -3.64442,-0.97652 -7.10047,-1.41623 -9.90039,-1.35547 z m 541.5918,0 c -2.79992,-0.0608 -6.25597,0.37895 -9.90039,1.35547 l -188.972658,50.63477 c -8.330095,2.23204 -14.399944,6.39863 -13.611328,9.34179 0.788626,2.94319 8.128886,3.51525 16.458985,1.28321 L 141.54688,682.11328 c 8.33006,-2.23204 14.39994,-6.3986 13.61132,-9.3418 -0.4436,-1.65552 -2.95869,-2.56054 -6.55859,-2.63867 z m -270.79688,44.66211 a 18.897636,18.897636 0 0 0 -18.89648,18.89649 18.897636,18.897636 0 0 0 18.89648,18.89843 18.897636,18.897636 0 0 0 18.89844,-18.89843 18.897636,18.897636 0 0 0 -18.89844,-18.89649 z m -233.77734,26.79492 c -8.62395,0 -15.56641,2.45298 -15.56641,5.5 0,3.04698 6.94246,5.5 15.56641,5.5 h 157.84375 c 8.62396,0 15.56641,-2.45302 15.56641,-5.5 0,-3.04702 -6.94245,-5.5 -15.56641,-5.5 z m 309.712891,0 c -8.623952,0 -15.566406,2.45298 -15.566406,5.5 0,3.04698 6.942454,5.5 15.566406,5.5 H 111.58203 c 8.62395,0 15.56641,-2.45302 15.56641,-5.5 0,-3.04702 -6.94246,-5.5 -15.56641,-5.5 z"
       transform="scale(0.26458333)"
       id="path4574"
       inkscape:connector-curvature="0"
       inkscape:export-xdpi="138.577"
       inkscape:export-ydpi="138.577" />
  </g>
</svg>
