<?xml version="1.0" encoding="UTF-8" standalone="no"?>
<!-- Created with Inkscape (http://www.inkscape.org/) -->

<svg
   xmlns:dc="http://purl.org/dc/elements/1.1/"
   xmlns:cc="http://creativecommons.org/ns#"
   xmlns:rdf="http://www.w3.org/1999/02/22-rdf-syntax-ns#"
   xmlns:svg="http://www.w3.org/2000/svg"
   xmlns="http://www.w3.org/2000/svg"
   xmlns:xlink="http://www.w3.org/1999/xlink"
   xmlns:sodipodi="http://sodipodi.sourceforge.net/DTD/sodipodi-0.dtd"
   xmlns:inkscape="http://www.inkscape.org/namespaces/inkscape"
   width="300mm"
   height="300mm"
   viewBox="0 0 300 300"
   version="1.1"
   id="svg8"
   inkscape:version="0.92.4 (5da689c313, 2019-01-14)"
   sodipodi:docname="drawing.svg"
   inkscape:export-filename="C:\Users\Harikrishnan\Pictures\drawing.png"
   inkscape:export-xdpi="138.577"
   inkscape:export-ydpi="138.577">
  <defs
     id="defs2">
    <linearGradient
       inkscape:collect="always"
       id="linearGradient4747">
      <stop
         style="stop-color:#800000;stop-opacity:1"
         offset="0"
         id="stop4743" />
      <stop
         style="stop-color:#ffcc00;stop-opacity:1"
         offset="1"
         id="stop4745" />
    </linearGradient>
    <radialGradient
       inkscape:collect="always"
       xlink:href="#linearGradient4747"
       id="radialGradient4749"
       cx="-131.98866"
       cy="765.67487"
       fx="-131.98866"
       fy="765.67487"
       r="277.42438"
       gradientTransform="matrix(0.00422655,-1.0369786,0.57048491,0.00232683,-286.01693,113.23863)"
       gradientUnits="userSpaceOnUse" />
  </defs>
  <sodipodi:namedview
     id="base"
     pagecolor="#ffffff"
     bordercolor="#666666"
     borderopacity="1.0"
     inkscape:pageopacity="0.0"
     inkscape:pageshadow="2"
     inkscape:zoom="0.25"
     inkscape:cx="-337.53174"
     inkscape:cy="461.19668"
     inkscape:document-units="mm"
     inkscape:current-layer="layer1"
     showgrid="false"
     inkscape:showpageshadow="true"
     showborder="true"
     showguides="false"
     inkscape:window-width="1366"
     inkscape:window-height="705"
     inkscape:window-x="-8"
     inkscape:window-y="-8"
     inkscape:window-maximized="1" />
  <metadata
     id="metadata5">
    <rdf:RDF>
      <cc:Work
         rdf:about="">
        <dc:format>image/svg+xml</dc:format>
        <dc:type
           rdf:resource="http://purl.org/dc/dcmitype/StillImage" />
        <dc:title></dc:title>
      </cc:Work>
    </rdf:RDF>
  </metadata>
  <g
     inkscape:label="Layer 1"
     inkscape:groupmode="layer"
     id="layer1"
     transform="translate(0,3)">
    <path
       style="fill:url(#radialGradient4749);fill-opacity:1;fill-rule:nonzero;stroke:#b00000;stroke-width:0;stroke-miterlimit:4;stroke-dasharray:none;stroke-opacity:1"
       d="m 150.23114,31.15599 c -1.62567,0 -2.93441,3.704009 -2.93441,8.305149 V 224.50035 c 0,4.60113 1.30874,8.30517 2.93441,8.30517 1.62567,0 2.93442,-3.70404 2.93442,-8.30517 V 39.461139 c 0,-4.60114 -1.30875,-8.305149 -2.93442,-8.305149 z m -39.34891,79.27929 c -0.10282,-0.002 -0.20301,0.0101 -0.30116,0.0365 -1.57026,0.42072 -1.87548,4.337 -0.68463,8.78137 l 27.0152,100.82267 c 1.19086,4.44435 3.41386,7.68386 4.98413,7.2631 1.57028,-0.42076 1.87549,-4.33806 0.68463,-8.78241 L 115.56521,117.7338 c -1.11643,-4.16658 -3.14055,-7.27307 -4.68298,-7.29852 z m 78.69783,0 c -1.54244,0.0254 -3.5655,3.13194 -4.68194,7.29852 l -27.01519,100.82269 c -1.19087,4.44437 -0.88564,8.36167 0.68463,8.78241 1.57027,0.42076 3.79327,-2.81873 4.98413,-7.2631 l 27.0152,-100.82267 c 1.19086,-4.44435 0.88564,-8.36065 -0.68464,-8.78137 -0.0982,-0.0262 -0.19943,-0.0383 -0.30219,-0.0365 z m 34.57319,16.02155 a 5.041232,5.041232 0 0 0 -5.04145,5.04145 5.041232,5.041232 0 0 0 5.04145,5.04041 5.041232,5.041232 0 0 0 5.04041,-5.04041 5.041232,5.041232 0 0 0 -5.04041,-5.04145 z M 34.012149,137.77456 a 5.041232,5.041232 0 0 0 -5.041449,5.04143 5.041232,5.041232 0 0 0 5.041449,5.04146 5.041232,5.041232 0 0 0 5.041447,-5.04146 5.041232,5.041232 0 0 0 -5.041447,-5.04143 z m 182.138151,5.31342 c -1.54607,-10e-4 -4.083,2.39055 -6.096,5.87717 l -42.10724,72.93112 c -2.30056,3.98469 -3.01888,7.84662 -1.611,8.65944 1.40786,0.81283 4.39253,-1.74033 6.69309,-5.72502 l 42.10723,-72.93112 c 2.30058,-3.98473 3.01992,-7.84767 1.61205,-8.6605 -0.17604,-0.10163 -0.37727,-0.15083 -0.59813,-0.15103 z m -131.838315,0.001 c -0.220865,2e-4 -0.42111,0.0484 -0.597096,0.15002 -1.407875,0.81283 -0.68956,4.67579 1.611013,8.6605 l 42.107238,72.93112 c 2.30058,3.98471 5.28626,6.53787 6.69414,5.72502 1.40786,-0.81283 0.68956,-4.67473 -1.61101,-8.65944 L 90.409028,148.96511 c -2.013001,-3.48662 -4.55099,-5.87743 -6.097043,-5.87614 z m -41.525764,6.67747 c -0.366235,0.024 -0.666041,0.13975 -0.881578,0.35535 -1.149512,1.14952 0.543737,4.69423 3.797238,7.94772 l 73.807489,73.80749 c 3.2535,3.25349 6.79821,4.94676 7.94774,3.79724 1.14951,-1.14952 -0.54478,-4.69424 -3.79828,-7.94773 L 49.852375,153.9201 c -2.643468,-2.64347 -5.479129,-4.25793 -7.066154,-4.15362 z m 214.579299,0 c -1.62888,0.10103 -4.27633,1.67539 -6.75458,4.15362 l -73.80748,73.80645 c -3.25349,3.25349 -4.94676,6.79821 -3.79724,7.94773 1.14952,1.1495 4.69423,-0.54373 7.94774,-3.79724 l 73.80748,-73.80749 c 3.2535,-3.25351 4.94675,-6.79822 3.79724,-7.94772 -0.21554,-0.21554 -0.51535,-0.33127 -0.88159,-0.35535 -0.0992,-0.006 -0.20298,-0.006 -0.31157,0 z M 37.068483,191.21722 c -1.008112,-0.0413 -1.741774,0.18793 -2.046592,0.71589 -0.812828,1.40786 1.740329,4.39253 5.725033,6.69311 l 72.931126,42.10722 c 3.98471,2.30058 7.84767,3.0199 8.6605,1.61204 0.81284,-1.40787 -1.74137,-4.39357 -5.72608,-6.69413 L 43.681343,193.54413 c -2.49044,-1.43786 -4.932665,-2.25789 -6.61286,-2.32691 z m 226.326357,0 c -1.6802,0.069 -4.12242,0.88905 -6.61287,2.32691 l -72.93216,42.10722 c -3.98471,2.30056 -6.53785,5.28626 -5.72503,6.69413 0.81283,1.40786 4.67474,0.68854 8.65945,-1.61204 l 72.93216,-42.10722 c 3.98471,-2.30058 6.53786,-5.28525 5.72503,-6.69311 -0.30481,-0.52796 -1.03848,-0.75731 -2.04658,-0.71589 z M 5.7537838,217.39043 c -1.9206554,0.0417 -3.2635734,0.52453 -3.5002472,1.40782 -0.4207535,1.57028 2.818737,3.79326 7.2631003,4.98412 L 110.33932,250.79758 c 4.44436,1.19086 8.36062,0.88564 8.78137,-0.68464 0.42076,-1.57029 -2.81874,-3.79327 -7.2631,-4.98413 L 11.035944,218.11363 c -1.9444081,-0.52102 -3.7883178,-0.75562 -5.2821602,-0.7232 z m 288.9557462,0 c -1.49384,-0.0325 -3.33774,0.20218 -5.28217,0.7232 L 188.6047,245.12881 c -4.44435,1.19086 -7.68282,3.41386 -7.26206,4.98413 0.42077,1.57028 4.33702,1.8755 8.78137,0.68464 l 100.82268,-27.01521 c 4.44433,-1.19086 7.6828,-3.41384 7.26206,-4.98412 -0.23668,-0.88327 -1.57855,-1.36614 -3.49922,-1.40782 z m -144.47839,23.8286 a 10.082465,10.082465 0 0 0 -10.08185,10.08186 10.082465,10.082465 0 0 0 10.08185,10.08289 10.082465,10.082465 0 0 0 10.0829,-10.08289 10.082465,10.082465 0 0 0 -10.0829,-10.08186 z M 25.503793,255.51494 c -4.601142,0 -8.305155,1.30874 -8.305155,2.93442 0,1.62566 3.704013,2.93442 8.305155,2.93442 h 84.214467 c 4.60114,0 8.30515,-1.30876 8.30515,-2.93442 0,-1.62568 -3.70401,-2.93442 -8.30515,-2.93442 z m 165.241277,0 c -4.60114,0 -8.30515,1.30874 -8.30515,2.93442 0,1.62566 3.70401,2.93442 8.30515,2.93442 h 84.21446 c 4.60113,0 8.30515,-1.30876 8.30515,-2.93442 0,-1.62568 -3.70402,-2.93442 -8.30515,-2.93442 z"
       id="path4574"
       inkscape:connector-curvature="0"
       inkscape:export-xdpi="177.97652"
       inkscape:export-ydpi="177.97652"
       inkscape:export-filename="C:\Users\Harikrishnan\Pictures\path4574.png" />
  </g>
</svg>
