<?xml version="1.0" encoding="UTF-8" standalone="no"?>
<!-- Created with Inkscape (http://www.inkscape.org/) -->

<svg
   xmlns:dc="http://purl.org/dc/elements/1.1/"
   xmlns:cc="http://creativecommons.org/ns#"
   xmlns:rdf="http://www.w3.org/1999/02/22-rdf-syntax-ns#"
   xmlns:svg="http://www.w3.org/2000/svg"
   xmlns="http://www.w3.org/2000/svg"
   xmlns:sodipodi="http://sodipodi.sourceforge.net/DTD/sodipodi-0.dtd"
   xmlns:inkscape="http://www.inkscape.org/namespaces/inkscape"
   width="500"
   height="500"
   viewBox="0 0 132.29167 132.29167"
   version="1.1"
   id="svg878"
   inkscape:export-filename="C:\Users\Harikrishnan\Documents\path891.png"
   inkscape:export-xdpi="138.577"
   inkscape:export-ydpi="138.577"
   inkscape:version="0.92.4 (5da689c313, 2019-01-14)"
   sodipodi:docname="ISP.svg">
  <defs
     id="defs872" />
  <sodipodi:namedview
     id="base"
     pagecolor="#ffffff"
     bordercolor="#666666"
     borderopacity="1.0"
     inkscape:pageopacity="0.0"
     inkscape:pageshadow="2"
     inkscape:zoom="0.7"
     inkscape:cx="142.40642"
     inkscape:cy="247.87091"
     inkscape:document-units="mm"
     inkscape:current-layer="layer1"
     showgrid="false"
     units="px"
     inkscape:window-width="1366"
     inkscape:window-height="705"
     inkscape:window-x="-8"
     inkscape:window-y="-8"
     inkscape:window-maximized="1" />
  <metadata
     id="metadata875">
    <rdf:RDF>
      <cc:Work
         rdf:about="">
        <dc:format>image/svg+xml</dc:format>
        <dc:type
           rdf:resource="http://purl.org/dc/dcmitype/StillImage" />
        <dc:title></dc:title>
      </cc:Work>
    </rdf:RDF>
  </metadata>
  <g
     inkscape:label="Layer 1"
     inkscape:groupmode="layer"
     id="layer1"
     transform="translate(0,-164.70832)">
    <path
       style="fill:#ff0000;stroke-width:1"
       d="m 52.349416,284.3919 c -1.47035,-0.30371 -5.801192,-1.63286 -9.624097,-2.95359 -18.716614,-6.46634 -30.075298,-16.23484 -37.2436079,-32.0297 -3.5781732,-7.88424 -3.9207013,-9.49434 -3.9207013,-18.42984 0,-8.93548 0.3425281,-10.54554 3.9207013,-18.42982 2.1563865,-4.75142 5.2829929,-10.20901 6.9480179,-12.12793 14.092878,-16.2419 34.927941,-24.58221 58.079265,-23.24918 30.242466,1.74129 54.484296,20.22153 59.343726,45.23941 4.93104,25.38657 -11.2213,49.0379 -40.610934,59.46522 -4.695709,1.66606 -10.143499,2.3825 -20.317536,2.67203 -7.645812,0.21752 -15.104486,0.14704 -16.574834,-0.15673 z m 15.457362,-5.89872 c 0.590255,-2.10444 0.31129,-2.59168 -1.483829,-2.59168 -2.393892,0 -2.520196,0.36568 -1.518275,4.39559 0.72565,2.91874 1.870427,2.23086 3.002104,-1.80391 z m -11.90789,-0.43212 c -1.217209,-1.31113 -3.103531,-2.19917 -4.191829,-1.97341 -1.602276,0.33237 -1.277002,0.88908 1.709761,2.92609 4.326888,2.95098 5.63866,2.44754 2.482068,-0.95268 z m 6.723704,1.77774 c -0.356995,-1.00208 -0.649082,-2.29793 -0.649082,-2.87964 0,-0.58172 -0.962408,-1.05766 -2.138685,-1.05766 -2.601918,0 -2.691631,0.88826 -0.368937,3.65287 2.17441,2.58809 4.037165,2.75594 3.156704,0.28443 z m 10.227496,-0.0844 c 2.511628,-2.44837 2.486576,-3.85299 -0.06874,-3.85299 -1.855248,0 -3.32244,2.07625 -3.32244,4.70165 0,1.58399 1.205084,1.28242 3.39117,-0.84866 z m 5.698256,-0.93763 c 2.775361,-2.45048 2.919585,-2.83321 1.069347,-2.83774 -1.176279,-0.002 -3.003261,1.27436 -4.059964,2.83822 -2.453396,3.63102 -1.122066,3.63081 2.990617,-4.8e-4 z m -28.872291,-0.6117 c -1.064514,-1.26707 -3.184219,-2.27881 -4.710446,-2.24839 -2.655266,0.053 -2.613519,0.14704 0.967745,2.17905 4.991486,2.83234 6.080989,2.85251 3.742701,0.0691 z m 35.926071,0.32378 c 2.902329,-1.57884 3.233511,-2.06824 1.6348,-2.41588 -1.102676,-0.23975 -3.014129,0.65121 -4.247673,1.97992 -2.723406,2.93359 -2.153278,3.0287 2.612873,0.43596 z m 10.590399,-1.57998 c 1.288826,-0.78539 1.183764,-0.97716 -0.53467,-0.97587 -1.176281,8.8e-4 -3.101101,0.81624 -4.277378,1.81192 -2.077125,1.75815 -2.061733,1.78627 0.534672,0.97588 1.470349,-0.45892 3.395169,-1.27426 4.277376,-1.81193 z m -56.140564,0.10424 c -0.363492,-0.63352 -1.715202,-1.11543 -3.003808,-1.07091 -2.258843,0.0782 -2.266173,0.11625 -0.204238,1.07091 2.943352,1.36238 3.989723,1.36238 3.208031,0 z m 29.390589,-7.19917 c 0.01184,-1.47573 -0.843051,-2.01576 -3.19166,-2.01576 -2.684525,0 -3.208032,0.45685 -3.208032,2.79956 0,2.02127 0.668875,2.90653 2.406024,3.18446 2.650303,0.424 3.968627,-0.8859 3.993668,-3.96826 z m 7.525522,2.5917 c 1.810782,-3.08896 1.139188,-4.60746 -2.037767,-4.60746 -2.431952,0 -3.190325,0.60266 -3.589612,2.85258 -0.278434,1.56892 -0.320696,3.05246 -0.09393,3.29676 0.986871,1.063 4.796062,0.0364 5.721296,-1.54188 z m 9.231817,-0.8639 2.737374,-3.16763 -3.543242,-0.37862 c -2.45266,-0.26211 -3.969185,0.24883 -4.92712,1.65996 -3.701913,5.45337 1.244115,7.08074 5.732988,1.88629 z m 9.952244,-0.38842 3.702306,-3.35514 h -4.431498 c -3.651156,0 -4.8135,0.57786 -6.600803,3.2816 l -2.169301,3.28162 2.898493,0.0736 c 1.716771,0.0435 4.407929,-1.29435 6.600803,-3.28162 z m 9.570549,0.38842 4.90599,-3.16763 -4.18201,-0.36853 c -3.48724,-0.30732 -4.72739,0.21901 -7.464846,3.16761 -3.26081,3.51245 -3.265667,3.53619 -0.723989,3.53619 1.407361,0 4.766555,-1.42545 7.464855,-3.16764 z m -73.156131,-0.82817 c -1.905144,-1.68214 -4.619495,-2.84937 -6.6834,-2.87395 -1.911453,-0.0222 -3.475368,0.16706 -3.475368,0.42137 0,1.40753 7.423804,5.25975 10.158768,5.2714 l 3.208033,0.0151 z m 10.476027,4.6e-4 c -1.489625,-2.2046 -2.882267,-2.84341 -6.198649,-2.84323 l -4.277378,1.9e-4 3.000328,2.84324 c 1.761177,1.669 4.321249,2.84328 6.198651,2.84328 h 3.198322 z m 9.593015,0.44226 c -0.688666,-2.8367 -2.294327,-3.66623 -6.108855,-3.15607 -2.677568,0.35813 -2.723858,0.48306 -1.099035,2.96558 1.082486,1.65392 2.798897,2.59171 4.743551,2.59171 2.562053,0 2.954458,-0.38234 2.464339,-2.40122 z m 8.075616,-0.19052 c -0.261903,-1.9864 -1.153402,-2.67601 -3.81708,-2.95265 -3.780701,-0.39265 -4.034569,-0.037 -2.368399,3.31635 0.647396,1.30301 2.232097,2.22797 3.817077,2.22797 2.198836,0 2.645645,-0.48893 2.368402,-2.59167 z m -34.653645,-8.639 c -1.068599,-1.74218 -2.978559,-5.24097 -4.244354,-7.77506 -2.515931,-5.03689 -4.109861,-5.35056 -9.331884,-1.83656 l -2.9757205,2.00241 4.4032815,5.38844 c 4.025105,4.92561 4.81932,5.3884 9.247432,5.3884 h 4.844154 z m 12.935577,1.15187 c -0.414132,-1.1087 -1.735408,-4.73704 -2.936175,-8.06305 l -2.183211,-6.04729 h -5.805046 c -5.520848,0 -5.769739,0.1268 -5.083828,2.5917 0.396671,1.42543 2.163477,5.05381 3.92624,8.06306 3.049584,5.206 3.438535,5.47134 8.020002,5.47134 4.159644,0 4.712501,-0.27435 4.062018,-2.01576 z m 10.933663,0.57592 c -0.282007,-0.79191 -1.131871,-4.42027 -1.888589,-8.06305 l -1.375848,-6.62321 h -5.248616 c -5.971816,0 -5.999155,0.17589 -1.658521,10.65476 2.148559,5.18702 2.485043,5.47134 6.475322,5.47134 2.92776,0 4.052911,-0.4383 3.696252,-1.43984 z m 9.891646,-3.45558 c -0.0198,-5.90054 -0.719828,-7.19181 -4.428992,-8.16875 -1.562747,-0.4116 -3.60599,-1.06443 -4.54054,-1.45071 -1.41228,-0.58378 -1.592872,-0.0497 -1.069557,3.1627 1.588117,9.74881 2.491429,11.35218 6.395692,11.35218 3.59529,0 3.659483,-0.0861 3.643397,-4.89542 z m 10.060736,3.07342 c 1.309444,-3.67572 0.642362,-5.99311 -1.924936,-6.68721 -1.41571,-0.38273 -3.34053,-1.01271 -4.277378,-1.39998 -1.406345,-0.58128 -1.70336,0.22125 -1.70336,4.60258 0,5.26493 0.0285,5.30661 3.628299,5.30661 2.322072,0 3.861971,-0.65594 4.277375,-1.822 z m 10.273176,-0.36905 c 0,-1.42385 -1.183995,-2.63563 -3.381433,-3.46082 -3.890924,-1.46101 -3.593411,-1.62495 -4.508589,2.48424 -0.680661,3.0562 -0.55431,3.16763 3.592274,3.16763 3.511179,0 4.297748,-0.40101 4.297748,-2.19105 z m 10.693441,1.0392 c 0,-0.63356 -0.421053,-1.15187 -0.935674,-1.15187 -0.514621,0 -2.43944,-0.32398 -4.277378,-0.71993 -2.64594,-0.57002 -3.341699,-0.3302 -3.341699,1.15187 0,1.41583 1.041926,1.87178 4.277377,1.87178 2.352555,0 4.277374,-0.51836 4.277374,-1.15185 z m 11.757509,0.28796 c -0.003,-0.47517 -2.16832,-0.99837 -4.81205,-1.16274 -2.704802,-0.16814 -4.806769,0.20968 -4.806769,0.86391 0,0.63949 2.165422,1.16272 4.812047,1.16272 2.646632,0 4.809682,-0.38876 4.806772,-0.86389 z m 13.9877,-2.20021 c 2.15401,-2.54593 2.25268,-2.93203 0.58338,-2.28299 -1.10496,0.42965 -4.12067,1.35389 -6.70158,2.05393 -6.3342,1.71805 -6.89047,3.29316 -1.16298,3.29316 3.71401,0 5.22768,-0.63698 7.28118,-3.0641 z m 0.18635,-5.13477 5.07939,-2.56171 V 233.15 211.52626 l -4.8336,2.30313 c -12.46978,5.94164 -25.86802,5.06685 -46.578005,-3.04111 -7.215539,-2.8249 -13.343225,-4.89479 -13.617086,-4.59981 -0.498504,0.53698 4.517306,2.90453 6.153427,2.90453 0.477837,0 1.467841,0.77751 2.200009,1.72781 0.732167,0.95026 2.423823,1.72778 3.759232,1.72778 2.955277,0 3.726177,1.92596 3.726177,9.30913 0,7.22706 -2.140917,7.548 -5.134621,0.76969 -1.189163,-2.6925 -4.036069,-6.78769 -6.326462,-9.10039 -4.021977,-4.06124 -4.245802,-4.1388 -6.547001,-2.26903 l -2.382652,1.9359 2.977295,2.91739 c 1.637512,1.60459 5.50362,4.93508 8.591352,7.40117 3.087731,2.46605 5.614057,4.89556 5.614057,5.39892 0,0.50335 2.887228,0.91519 6.416065,0.91519 6.355395,0 6.416064,-0.0314 6.416064,-3.31456 0,-1.823 -0.721807,-3.95982 -1.604016,-4.74849 -2.544225,-2.27444 -2.030732,-4.97157 0.802007,-4.2125 1.323314,0.35456 5.654157,1.00071 9.624098,1.43581 3.96994,0.4351 7.218071,1.30133 7.218071,1.92492 0,0.62361 0.733644,0.478 1.630326,-0.32363 2.318413,-2.0726 12.699733,-1.84554 15.804363,0.34569 4.16727,2.94118 5.41157,7.60593 3.40721,12.77321 -1.34836,3.47608 -2.81633,4.89688 -7.25606,7.02272 -8.14763,3.90124 -11.35871,4.50769 -12.147292,2.29413 -0.359246,-1.00844 -0.10809,-2.4207 0.558162,-3.13833 1.80328,-1.94243 1.46587,-3.65746 -0.392693,-1.99592 -1.11726,0.9988 -1.604016,3.65089 -1.604016,8.7395 0,6.1603 0.339968,7.50153 2.168649,8.55573 4.44144,2.56042 0.93846,3.7465 -9.352308,3.16672 -7.566278,-0.42627 -10.542537,-1.05822 -11.881756,-2.52272 -1.669655,-1.82583 -1.666533,-2.05013 0.04765,-3.42125 1.35604,-1.0847 1.973356,-3.76982 2.367175,-10.2964 l 0.532746,-8.82905 H 77.40249 c -4.424957,0 -4.722038,0.17891 -3.703859,2.22801 2.65298,5.33968 0.720955,12.02264 -3.831516,13.25341 -3.151093,0.85192 -13.240364,-1.50775 -13.240364,-3.09665 0,-0.55112 -0.460024,-0.69583 -1.022274,-0.32152 -0.56225,0.37428 -2.835151,-0.13542 -5.050891,-1.1326 -2.21574,-0.99724 -5.00385,-1.67766 -6.195801,-1.51202 -3.394286,0.47166 -4.840543,-1.1582 -4.840543,-5.45508 0,-3.76185 -0.190439,-3.96355 -3.742703,-3.96355 -4.310318,0 -5.130631,2.57444 -1.489212,4.67367 3.263643,1.88141 1.199907,3.41865 -5.579933,4.15637 -3.169642,0.34489 -7.882468,1.61553 -10.47295,2.82365 -2.59048,1.20814 -4.939197,1.94971 -5.219371,1.64793 -0.280173,-0.3018 0.198404,-2.25186 1.063537,-4.33348 2.29986,-5.53382 2.553995,-29.70169 0.312326,-29.70169 -2.747253,0 -1.760924,-3.30973 1.533134,-5.14464 4.92173,-2.74152 17.952492,-4.8498 19.522527,-3.15862 0.994509,1.07125 0.784879,1.87679 -0.938459,3.60622 -1.883228,1.88988 -2.242641,3.72103 -2.375158,12.10091 l -0.156145,9.8741 h 3.251045 c 1.788072,0 4.194912,-0.63494 5.348531,-1.41101 1.655123,-1.11338 2.373749,-1.11338 3.407391,0 0.720446,0.77607 2.237959,1.41101 3.37225,1.41101 1.589249,0 0.993829,-1.02139 -2.595589,-4.45253 -4.11558,-3.93411 -4.657938,-5.02132 -4.657938,-9.33717 0,-6.65026 3.863239,-10.35205 10.971802,-10.51335 l 5.019752,-0.11389 -4.812048,-1.69019 c -6.324053,-2.22127 -24.871357,-2.51041 -30.389234,-0.47373 -2.304667,0.85065 -5.793401,2.56551 -7.752744,3.81073 l -3.5624407,2.26412 v 21.06712 21.06712 l 6.1487277,-2.69844 c 13.063895,-5.73328 22.240738,-4.93976 47.318476,4.09158 26.924888,9.69655 41.064584,10.87737 53.734544,4.48752 z M 7.4368919,236.16217 c 0,-10.42145 -0.1092767,-10.94271 -2.2937825,-10.94271 -2.1791375,0 -2.2633151,0.38862 -1.6842189,7.77509 0.5800345,7.39845 2.205341,14.11034 3.4168622,14.11034 0.3086268,0 0.5611392,-4.92423 0.5611392,-10.94272 z m 120.6586381,2.39346 c 1.64021,-8.96512 1.01751,-13.67808 -1.7323,-13.11157 -1.548,0.31892 -1.88121,2.05031 -2.14198,11.13013 -0.24038,8.36984 -0.002,10.64473 1.06935,10.26623 0.758,-0.26743 2.0202,-3.99559 2.80493,-8.28479 z m -66.122088,2.5833 c 0,-0.76731 -1.29304,-2.8489 -2.873422,-4.62575 -2.295033,-2.58035 -3.819713,-3.23067 -7.574524,-3.23067 -5.65303,0 -5.605395,1.56801 0.176446,5.80792 4.318837,3.16709 10.271495,4.35425 10.2715,2.0485 z m 39.565738,-15.8515 c 0,-1.35905 -2.085602,-2.81285 -2.851591,-1.98776 -0.765984,0.82512 0.583675,3.07165 1.845361,3.07165 0.55342,0 1.00623,-0.48773 1.00623,-1.08389 z M 7.4368919,219.46015 c 0,-1.90058 -0.4812048,-3.45561 -1.069342,-3.45561 -0.5881405,0 -1.0759175,0.38878 -1.0839469,0.86393 -0.00803,0.47513 -0.3047574,2.03013 -0.6593903,3.45556 -0.4740313,1.90535 -0.1869795,2.59171 1.0839464,2.59171 1.2079197,0 1.7287328,-1.04109 1.7287328,-3.45559 z m 120.4156181,1.63356 c -0.357,-1.00209 -0.64906,-2.29792 -0.64906,-2.87962 0,-0.58173 -0.72183,-1.05768 -1.60404,-1.05768 -0.99803,0 -1.60401,1.08787 -1.60401,2.87966 0,2.1605 0.56271,2.87967 2.25309,2.87967 1.61519,0 2.06933,-0.51586 1.60402,-1.82203 z m -32.122667,-8.54476 c -0.333704,-1.26704 -0.879761,-3.34041 -1.213466,-4.60746 -0.489593,-1.85894 -1.521872,-2.30374 -5.346722,-2.30374 -4.305911,0 -4.739986,0.25621 -4.739986,2.7974 0,4.1124 2.742028,6.41752 7.633851,6.41752 3.762401,0 4.200547,-0.27531 3.666323,-2.30372 z m 14.364097,0.25629 c 0,-1.12607 -0.74912,-3.19945 -1.66465,-4.60746 -1.34361,-2.06626 -2.69808,-2.56003 -7.02281,-2.56003 -5.048614,0 -5.318195,0.14962 -4.666564,2.59172 0.380368,1.42541 0.926427,3.49878 1.213467,4.60745 0.777189,3.0019 12.140557,2.97225 12.140557,-0.0318 z m 9.99852,-3.10562 c 3.03522,-2.46211 1.13321,-4.06187 -4.82934,-4.06187 -4.72156,0 -5.30145,0.25264 -4.62761,2.01576 0.42373,1.10868 1.00184,2.87885 1.28472,3.93373 0.41558,1.54967 1.05955,1.70665 3.35404,0.81756 1.56187,-0.60519 3.73003,-1.82252 4.81819,-2.70518 z m -37.57338,-0.60626 c -0.441093,-3.23727 -0.767178,-3.45561 -5.161516,-3.45561 -5.773433,0 -6.404634,2.6416 -1.215312,5.08616 5.642098,2.6578 6.916727,2.3319 6.376828,-1.63055 z m -11.990883,-2.30373 c 0,-0.63352 -1.323316,-1.11543 -2.940696,-1.07087 -2.605826,0.0717 -2.697153,0.19376 -0.802008,1.07087 2.920782,1.35197 3.742704,1.35197 3.742704,0 z m -50.451605,-5.64724 c 7.959768,-2.96124 9.312604,-4.71954 3.631204,-4.71954 -3.465112,0 -5.262104,0.77185 -7.966614,3.42183 -4.065741,3.98377 -3.411262,4.17968 4.33541,1.29771 z m 39.758163,-1.26395 c 0,-3.15862 -0.310898,-3.45559 -3.617985,-3.45559 -4.523094,0 -6.26585,4.09867 -2.447679,5.75653 4.541999,1.97215 6.065664,1.39415 6.065664,-2.30094 z m 10.693442,1.822 c 0,-3.81205 -1.368012,-5.27759 -4.926458,-5.27759 -3.318545,0 -3.628297,0.29504 -3.628297,3.45559 0,3.26362 0.237632,3.45559 4.277377,3.45559 2.979585,0 4.277378,-0.49562 4.277378,-1.63359 z m 10.69344,1.13265 c 0,-0.27554 -0.469295,-1.83053 -1.042877,-3.45559 -0.847217,-2.4003 -1.750029,-2.95465 -4.812047,-2.95465 -3.974776,0 -4.11956,0.20215 -3.095181,4.31947 0.528313,2.12356 1.394933,2.59171 4.797447,2.59171 2.283963,0 4.152658,-0.22542 4.152658,-0.50094 z m 11.762785,-0.11539 c 0,-0.33906 -0.777151,-1.89406 -1.727,-3.4556 -1.272574,-2.09204 -2.67947,-2.83912 -5.346722,-2.83912 -3.822195,0 -3.967402,0.21291 -2.945726,4.3195 0.544322,2.18787 1.375128,2.59168 5.332118,2.59168 2.578033,0 4.68733,-0.27739 4.68733,-0.61646 z m 12.197918,-0.82335 c -2.1567,-4.08359 -4.20774,-5.47137 -8.086278,-5.47137 -4.276523,0 -4.871068,0.92669 -3.004672,4.68318 0.868914,1.74888 2.262257,2.228 6.47918,2.228 3.99044,0 5.17662,-0.37033 4.61177,-1.43981 z m 10.79297,-2.01578 c -2.36274,-2.6565 -4.01632,-3.45559 -7.15078,-3.45559 -4.62671,0 -4.72436,0.16899 -2.35032,4.07206 1.45984,2.39992 2.56607,2.83912 7.1508,2.83912 h 5.42379 z m -65.764651,-1.79584 c 0,-2.29799 -8.099279,-2.29606 -8.917989,0.002 -0.437962,1.22939 0.436779,1.7584 3.36096,2.03269 4.735178,0.44421 5.557029,0.1436 5.557029,-2.03477 z m -10.693443,-0.50797 c 0,-0.63351 -2.137021,-1.15186 -4.748939,-1.15186 -2.611914,0 -5.04634,0.51835 -5.409827,1.15186 -0.407328,0.70994 1.414685,1.15186 4.748939,1.15186 2.975405,0 5.409827,-0.51835 5.409827,-1.15186 z m -6.588379,-6.91117 c 3.25791,-3.20528 3.340079,-3.45559 1.134273,-3.45559 -2.194601,0 -11.655397,5.18179 -11.655397,6.3838 0,0.29004 1.576973,0.52738 3.504387,0.52738 2.400349,0 4.610937,-1.08867 7.016737,-3.45559 z m 9.856766,0.86392 c 1.103948,-1.42547 2.02319,-2.98048 2.042759,-3.4556 0.08594,-2.08668 -5.099294,-0.50926 -8.519178,2.59168 l -3.742703,3.39363 4.105967,0.0308 c 2.973566,0.0222 4.659539,-0.68379 6.113155,-2.56071 z m 9.590213,-0.36296 c 1.398896,-3.96336 1.401406,-3.95655 -1.464751,-3.95655 -2.318962,0 -4.617045,1.93967 -6.482257,5.47133 -0.547363,1.03643 0.313354,1.43985 3.071848,1.43985 3.129763,0 4.023456,-0.54164 4.87516,-2.95463 z m 8.528284,-0.50096 c 0,-4.27672 -3.292744,-4.78333 -5.820757,-0.89558 -2.410527,3.7071 -2.102925,4.35117 2.078051,4.35117 3.445665,0 3.742706,-0.27425 3.742706,-3.45559 z m 8.538378,1.4398 c -0.04592,-5.65444 -5.154921,-6.56014 -6.497644,-1.15186 -0.745406,3.00242 -0.596023,3.16765 2.863794,3.16765 2.769744,0 3.646275,-0.48622 3.63385,-2.01579 z m 8.036456,-1.4398 c -1.165152,-2.42706 -2.446499,-3.45559 -4.30484,-3.45559 -2.828793,0 -2.969741,0.30875 -1.971906,4.31951 0.508787,2.04499 1.41372,2.59167 4.290237,2.59167 h 3.645445 z m 9.522496,0.86392 c -2.866716,-3.6472 -3.841701,-4.28182 -6.609262,-4.30189 -2.360192,-0.0173 -2.383518,0.0865 -0.774547,3.43797 1.380954,2.87654 2.309265,3.45559 5.539914,3.45559 h 3.88098 z m 8.656353,-0.86392 C 93.437551,188.76301 90.451386,187.208 89.021861,187.208 h -2.599135 l 2.28432,3.45559 c 1.897436,2.87034 3.021332,3.45559 6.635921,3.45559 h 4.351599 z m 9.894587,-0.0222 c -2.79193,-1.88853 -6.13009,-3.43372 -7.418135,-3.43372 -2.247079,0 -2.217453,0.14014 0.731581,3.45559 2.438134,2.74123 3.971624,3.45107 7.418134,3.43372 l 4.34465,-0.0221 z m -63.896464,-6.88935 c 0.882209,-0.61414 1.122812,-1.11659 0.534672,-1.11659 -0.588139,0 -1.791152,0.50245 -2.673362,1.11659 -0.882209,0.61411 -1.122812,1.11658 -0.534672,1.11658 0.588142,0 1.791153,-0.50247 2.673362,-1.11658 z m 8.083032,-0.63949 c 2.042523,-1.76264 2.041516,-1.77437 -0.06294,-0.73154 -1.176279,0.58286 -2.860497,1.34801 -3.742704,1.70037 -1.385598,0.55342 -1.377024,0.65305 0.06294,0.73159 0.916834,0.0502 2.601051,-0.71515 3.742702,-1.70042 z m 6.397082,0.56284 c 1.164872,-2.03022 -0.06312,-2.31491 -2.260719,-0.524 -1.809187,1.47435 -1.839983,1.68373 -0.252385,1.71587 0.994536,0.0194 2.125431,-0.5162 2.513104,-1.19187 z m 6.147264,-1.07523 c 0.307603,-1.26702 0.197695,-2.3037 -0.244218,-2.3037 -0.441922,0 -1.674465,1.03668 -2.738983,2.3037 -1.87534,2.23214 -1.867751,2.30372 0.244217,2.30372 1.280382,0 2.41046,-0.95049 2.738984,-2.30372 z m 5.799546,1.43982 c -0.238095,-0.47513 -0.773584,-1.88603 -1.18998,-3.13532 -0.63432,-1.90312 -0.918491,-1.9965 -1.752526,-0.57594 -1.630982,2.778 -1.169982,4.57516 1.173605,4.57516 1.210987,0 2.006995,-0.38873 1.768901,-0.8639 z m 5.002484,-0.77481 c -0.970632,-2.72461 -3.626463,-3.18517 -3.626463,-0.62884 0,1.4876 0.724084,2.26755 2.10513,2.26755 1.38104,0 1.904323,-0.56365 1.521333,-1.63871 z m 5.525915,-0.1255 c -2.66341,-2.16995 -3.903918,-2.1554 -3.123015,0.0366 0.338537,0.9503 1.646745,1.7113 2.907135,1.69115 2.245025,-0.0357 2.249415,-0.0708 0.215871,-1.72779 z m 5.81844,0.0366 c -3.498934,-2.1545 -5.39459,-2.12914 -2.736312,0.0366 1.141655,0.93017 2.825871,1.67281 3.742703,1.65036 1.06848,-0.0263 0.707161,-0.63184 -1.006391,-1.68699 z m 8.020081,0.57595 c -0.36349,-0.63355 -1.142096,-1.15187 -1.730236,-1.15187 -0.588139,0 -0.771944,0.51832 -0.408452,1.15187 0.36349,0.63354 1.142097,1.15185 1.730234,1.15185 0.58814,0 0.771944,-0.51831 0.408454,-1.15185 z"
       id="path891"
       inkscape:connector-curvature="0" />
  </g>
</svg>
