<?xml version="1.0" encoding="UTF-8" standalone="no"?>
<!-- Created with Inkscape (http://www.inkscape.org/) -->

<svg
   xmlns:dc="http://purl.org/dc/elements/1.1/"
   xmlns:cc="http://creativecommons.org/ns#"
   xmlns:rdf="http://www.w3.org/1999/02/22-rdf-syntax-ns#"
   xmlns:svg="http://www.w3.org/2000/svg"
   xmlns="http://www.w3.org/2000/svg"
   xmlns:sodipodi="http://sodipodi.sourceforge.net/DTD/sodipodi-0.dtd"
   xmlns:inkscape="http://www.inkscape.org/namespaces/inkscape"
   width="230mm"
   height="230mm"
   viewBox="0 0 230 230"
   version="1.1"
   id="svg8"
   inkscape:version="0.92.4 (5da689c313, 2019-01-14)"
   sodipodi:docname="luminati1.svg"
   style="enable-background:new">
  <defs
     id="defs2" />
  <sodipodi:namedview
     id="base"
     pagecolor="#ffffff"
     bordercolor="#666666"
     borderopacity="1.0"
     inkscape:pageopacity="0.0"
     inkscape:pageshadow="2"
     inkscape:zoom="0.49497475"
     inkscape:cx="422.91903"
     inkscape:cy="428.47215"
     inkscape:document-units="mm"
     inkscape:current-layer="layer1"
     showgrid="false"
     showguides="true"
     inkscape:guide-bbox="true"
     inkscape:window-width="1366"
     inkscape:window-height="705"
     inkscape:window-x="-8"
     inkscape:window-y="-8"
     inkscape:window-maximized="1">
    <sodipodi:guide
       position="202.59524,-42.333334"
       orientation="0,1"
       id="guide969"
       inkscape:locked="false" />
  </sodipodi:namedview>
  <metadata
     id="metadata5">
    <rdf:RDF>
      <cc:Work
         rdf:about="">
        <dc:format>image/svg+xml</dc:format>
        <dc:type
           rdf:resource="http://purl.org/dc/dcmitype/StillImage" />
        <dc:title></dc:title>
      </cc:Work>
    </rdf:RDF>
  </metadata>
  <g
     inkscape:label="Layer 1"
     inkscape:groupmode="layer"
     id="layer1"
     transform="translate(0,-67)">
    <path
       style="opacity:1;fill:#000000;fill-opacity:1;fill-rule:nonzero;stroke:#000000;stroke-width:1.32291651;stroke-miterlimit:4;stroke-dasharray:none;stroke-opacity:1"
       d="m 113.90114,100.10543 a 66.554828,66.554828 0 0 0 -2.09909,0.0744 v 50.54212 l -7.26726,-27.1229 a 44.122586,44.122586 0 0 0 -4.05455,1.08366 l 7.26779,27.12392 -25.262948,-43.75702 a 66.554828,66.554828 0 0 0 -3.639552,2.08825 l 25.26861,43.76839 -19.85915,-19.85977 a 44.122586,44.122586 0 0 0 -2.965692,2.96984 l 19.857572,19.85719 -43.735091,-25.24962 a 66.554828,66.554828 0 0 0 -2.147674,3.60494 l 43.783171,25.27857 -27.156314,-7.27656 a 44.122586,44.122586 0 0 0 -1.077964,4.05608 l 27.147534,7.27449 H 18.333027 14.214415 v 4.27674 h 4.118612 79.329848 l -26.824037,7.18768 a 44.122586,44.122586 0 0 0 1.084164,4.05453 l 27.127374,-7.26932 -43.759915,25.2646 a 66.554828,66.554828 0 0 0 2.088245,3.64061 L 101.1448,176.44751 81.287228,196.30573 a 44.122586,44.122586 0 0 0 2.969832,2.96519 l 19.85863,-19.85873 -25.25104,43.73739 a 66.554828,66.554828 0 0 0 3.604932,2.14818 l 25.278448,-43.78285 -7.27657,27.15545 a 44.122586,44.122586 0 0 0 4.05609,1.07848 l 7.2745,-27.1508 v 50.51217 a 66.554828,66.554828 0 0 0 2.09909,0.1049 66.554828,66.554828 0 0 0 2.09807,-0.0739 v -50.5411 l 7.26725,27.12186 a 44.122586,44.122586 0 0 0 4.05402,-1.08469 l -7.26829,-27.12496 25.26409,43.75857 a 66.554828,66.554828 0 0 0 3.6406,-2.08876 l -25.26977,-43.76787 19.85925,19.85925 a 44.122586,44.122586 0 0 0 2.9652,-2.97036 l -19.85667,-19.85667 43.73531,25.25066 a 66.554828,66.554828 0 0 0 2.14819,-3.60547 l -43.78544,-25.28011 27.15752,7.27708 a 44.122586,44.122586 0 0 0 1.07796,-4.05609 l -26.85055,-7.19439 h 46.19924 4.11862 v -2.17764 -2.0991 h -0.0744 -4.0442 -46.49845 l 27.12289,-7.26726 a 44.122586,44.122586 0 0 0 -1.08417,-4.05453 l -27.12186,7.26726 43.75547,-25.26254 a 66.554828,66.554828 0 0 0 -2.08773,-3.64009 l -43.77045,25.27081 19.86029,-19.86029 a 44.122586,44.122586 0 0 0 -2.96933,-2.96623 l -19.85564,19.85564 25.24962,-43.73325 a 66.554828,66.554828 0 0 0 -3.60598,-2.14767 l -25.28011,43.78647 7.27759,-27.15958 a 44.122586,44.122586 0 0 0 -4.05608,-1.07797 l -7.27397,27.14718 v -50.50904 a 66.554828,66.554828 0 0 0 -2.09807,-0.10439 z"
       id="rect849"
       inkscape:connector-curvature="0"
       inkscape:transform-center-x="16.03617"
       inkscape:transform-center-y="1.0690765" />
    <path
       style="opacity:1;fill:#000000;fill-opacity:1;fill-rule:nonzero;stroke:#000000;stroke-width:10;stroke-miterlimit:4;stroke-dasharray:none;stroke-opacity:1"
       d="M 110.709,74.205235 A 92.498689,92.606033 89.999779 0 0 25.167973,140.19595 h 5.575369 A 87.441105,87.446505 0 0 1 113.89744,79.206482 87.441105,87.446505 0 0 1 201.3381,166.65274 87.441105,87.446505 0 0 1 113.89744,254.09908 87.441105,87.446505 0 0 1 30.762463,193.11262 h -5.593974 a 92.498689,92.606033 89.999779 0 0 95.009181,65.8182 92.498689,92.606033 89.999779 0 0 86.21283,-92.38454 92.498689,92.606033 89.999779 0 0 -86.42625,-92.185499 92.498689,92.606033 89.999779 0 0 -9.25525,-0.155546 z"
       id="path890"
       inkscape:connector-curvature="0" />
    <path
       id="path975"
       style="fill:#000000;stroke-width:1"
       d="m 182.05758,291.33035 c -0.18425,-0.18426 -0.18425,-16.00337 0,-16.18764 0.0793,-0.0793 0.47147,-0.1273 1.03959,-0.1273 0.56811,0 0.9603,0.048 1.03957,0.1273 0.18426,0.18427 0.18426,16.00338 0,16.18764 -0.0793,0.0793 -0.47146,0.12729 -1.03957,0.12729 -0.56812,0 -0.96032,-0.048 -1.03959,-0.12729 z m -12.78726,-0.0666 c -0.15956,-0.17631 -0.17556,-0.81959 -0.17556,-7.05425 v -6.86025 h -3.59024 c -4.23788,0 -3.94137,0.0928 -3.94137,-1.23357 0,-0.51624 0.0496,-0.89516 0.1273,-0.97288 0.0969,-0.0969 2.15799,-0.1273 8.62898,-0.1273 9.83891,0 8.85282,-0.13203 8.85282,1.18531 0,1.22604 0.27115,1.14844 -4.01283,1.14844 h -3.62485 v 6.87868 c 0,8.00396 0.1326,7.2298 -1.23834,7.2298 -0.6891,0 -0.88364,-0.0368 -1.02591,-0.19398 z m -13.18888,-9.75092 c -1.07719,-1.96909 -1.99675,-3.61932 -2.04349,-3.66717 -0.0661,-0.0678 -4.0374,7.01613 -4.0374,7.20204 0,0.0249 1.80888,0.0452 4.01973,0.0452 h 4.0197 z m -11.97878,9.67851 c -0.17263,-0.26347 -0.12705,-0.35352 4.16115,-8.22044 l 4.33569,-7.95406 1.37902,0.002 1.37902,0.003 4.30732,7.9268 c 4.18316,7.69834 4.3031,7.93523 4.16086,8.21853 -0.14563,0.29013 -0.15245,0.29172 -1.24873,0.29172 h -1.10231 l -1.0961,-2.01571 -1.09612,-2.01568 -5.30264,0.0267 -5.30264,0.0267 -1.11448,1.98897 -1.11446,1.98898 h -1.08553 c -1.04212,0 -1.09249,-0.01 -1.26005,-0.26638 z m -20.6584,0.0724 c -0.16006,-0.17686 -0.17558,-0.89182 -0.17558,-8.09382 0,-6.00288 0.0306,-7.9304 0.1273,-8.02713 0.0849,-0.0849 0.53496,-0.12565 1.35251,-0.12228 l 1.22521,0.005 6.36473,6.74348 6.36472,6.74348 0.0273,-6.60593 c 0.0193,-4.66462 0.0621,-6.64781 0.14559,-6.74843 0.15507,-0.18688 1.90218,-0.1996 2.08655,-0.0152 0.18427,0.18425 0.18427,16.00336 0,16.18762 -0.0837,0.0837 -0.53039,0.1273 -1.3048,0.1273 h -1.17752 l -6.35939,-6.73151 -6.35937,-6.73153 -0.0273,6.53843 c -0.0247,5.89882 -0.0445,6.55732 -0.20208,6.73152 -0.25597,0.28284 -1.8317,0.28217 -2.08787,-0.001 z m -8.21634,0.0666 c -0.18427,-0.18426 -0.18427,-16.00337 0,-16.18763 0.0793,-0.0793 0.47145,-0.12731 1.03956,-0.12731 0.56812,0 0.9603,0.048 1.03958,0.12731 0.0967,0.0967 0.1273,2.02833 0.1273,8.04554 0,9.19284 0.13775,8.26939 -1.23357,8.26939 -0.51625,0 -0.89516,-0.0496 -0.97287,-0.1273 z m -27.426168,-0.0666 c -0.160029,-0.17683 -0.175553,-0.88847 -0.175553,-8.04557 0,-7.47174 0.0088,-7.86004 0.193984,-8.02711 0.158671,-0.14358 0.424295,-0.17434 1.458589,-0.16893 l 1.264596,0.006 3.971485,4.96579 3.971501,4.96579 1.654946,-2.08177 c 0.91023,-1.14498 2.69071,-3.38256 3.95662,-4.97242 l 2.30166,-2.89065 h 1.30606 c 0.87438,0 1.34813,0.0421 1.43335,0.1273 0.0967,0.0967 0.12729,2.02834 0.12729,8.04554 0,9.19487 0.13859,8.26938 -1.23834,8.26938 -0.68761,0 -0.8838,-0.037 -1.02507,-0.19306 -0.15752,-0.17405 -0.17741,-0.82265 -0.20208,-6.5865 l -0.0273,-6.3934 -3.96766,4.96878 c -3.592956,4.49958 -3.999246,4.97178 -4.302486,5.00049 -0.32468,0.0308 -0.45726,-0.12291 -4.35955,-5.05054 l -4.024691,-5.08218 -0.0273,6.47514 c -0.0247,5.83997 -0.0445,6.49411 -0.202073,6.66824 -0.255963,0.28284 -1.831714,0.28216 -2.087877,-10e-4 z m -41.901135,0 c -0.160547,-0.17741 -0.175556,-0.98765 -0.175556,-9.47285 0,-7.07545 0.03019,-9.30908 0.127295,-9.40615 0.08031,-0.0803 0.483243,-0.12729 1.092603,-0.12729 0.60936,0 1.012255,0.047 1.092616,0.12729 0.09685,0.0968 0.127295,2.1145 0.127295,8.43327 v 8.30598 h 7.086063 c 5.369952,0 7.116896,0.0308 7.213369,0.12729 0.07818,0.0782 0.127295,0.46073 0.127295,0.9913 0,0.70233 -0.03633,0.89688 -0.194,1.03958 -0.176921,0.16012 -0.903189,0.17556 -8.257699,0.17556 -7.67728,0 -8.072145,-0.009 -8.239281,-0.19398 z m 24.9526,0.29269 c -3.089813,-0.45407 -5.28116,-1.79355 -6.235418,-3.81147 l -0.2759,-0.58344 -0.0307,-5.92445 c -0.0228,-4.38461 0.0013,-5.96307 0.09259,-6.07301 0.08845,-0.10662 0.384753,-0.14857 1.048564,-0.14857 0.754458,0 0.957015,0.0351 1.097165,0.18994 0.152966,0.16902 0.175205,0.79654 0.202079,5.70172 0.02932,5.34719 0.03684,5.52623 0.253563,5.99457 0.340312,0.7355 0.832389,1.22383 1.640734,1.62823 1.222655,0.61166 2.068161,0.75315 4.500629,0.75315 2.287356,0 3.233659,-0.13873 4.368134,-0.64037 0.652836,-0.28866 1.462285,-1.00543 1.727273,-1.52949 0.389915,-0.77111 0.428442,-1.37106 0.428442,-6.67172 0,-3.88079 0.03182,-5.20321 0.127294,-5.29873 0.07931,-0.0794 0.472518,-0.1273 1.044355,-0.1273 0.753707,0 0.948319,0.0346 1.092603,0.194 0.158492,0.17514 0.175507,0.714 0.174943,5.54261 -3.13e-4,2.9916 -0.04648,5.62912 -0.104743,5.98511 -0.393924,2.40845 -2.809903,4.25954 -6.232724,4.77549 -1.111047,0.16747 -3.907595,0.19233 -4.918835,0.0437 z"
       inkscape:connector-curvature="0" />
    <path
       style="fill:#000000;stroke-width:1"
       d="m 386.68476,268.31241 c -9.73254,-0.54213 -18.61128,-2.80428 -27.09038,-6.90217 -10.00464,-4.83517 -18.7918,-12.07353 -25.52748,-21.02808 -5.1598,-6.85955 -8.98057,-14.52768 -11.33924,-22.75739 -0.21071,-0.73521 -0.40791,-1.46893 -0.43822,-1.6305 l -0.0551,-0.29376 5.18438,0.0218 5.18437,0.0218 0.65217,1.905 c 1.02303,2.98832 1.82072,4.90412 3.14163,7.54523 7.46988,14.93572 20.98234,26.1879 36.99521,30.80691 12.70965,3.66617 26.49341,3.01507 38.71913,-1.82895 14.63805,-5.79983 26.46142,-17.14715 32.84023,-31.51796 6.82605,-15.37839 6.82605,-33.24008 0,-48.61847 -7.86437,-17.71759 -23.85422,-30.59486 -42.81502,-34.48066 -9.45824,-1.93836 -19.46202,-1.54378 -28.74434,1.13376 -16.04642,4.62868 -29.52041,15.86243 -37.02431,30.8685 -1.35639,2.71247 -2.47223,5.45231 -3.45297,8.47847 l -0.44589,1.37583 h -5.18628 -5.18627 l 0.29504,-1.12183 c 4.26234,-16.20665 14.60932,-30.67335 28.70733,-40.13736 9.08628,-6.09962 19.3376,-9.92244 30.33669,-11.31283 3.08127,-0.3895 4.52551,-0.46772 8.636,-0.46772 4.80515,0 7.06712,0.17039 11.303,0.85141 17.72596,2.84991 33.76689,12.5689 44.70252,27.08467 6.22346,8.26092 10.53931,17.82778 12.60441,27.94 0.54839,2.6853 0.94197,5.43424 1.21223,8.46667 0.2154,2.41692 0.2154,8.84373 0,11.26066 -0.6021,6.75572 -1.87153,12.51609 -4.0924,18.57032 -6.20473,16.91438 -18.98233,31.00107 -35.25272,38.86443 -7.78934,3.76453 -15.8576,5.96318 -24.76204,6.74779 -1.4375,0.12667 -7.69404,0.23278 -9.10167,0.15438 z"
       id="path973"
       inkscape:connector-curvature="0" />
    <path
       style="fill:#000000;stroke-width:1"
       d="m 388.07396,235.36566 c 0.0328,-0.77999 0.0948,-2.46592 0.13786,-3.7465 0.043,-1.28058 0.11744,-3.45228 0.16532,-4.826 0.14688,-4.21506 0.24279,-7.11468 0.33264,-10.05774 0.0473,-1.55031 0.10391,-2.84761 0.12572,-2.8829 0.0218,-0.0353 0.0476,-0.42421 0.0572,-0.86426 l 0.0176,-0.8001 -0.28729,-0.0589 c -0.15801,-0.0324 -0.38254,-0.0808 -0.49896,-0.10746 -0.209,-0.048 -0.22173,-0.0179 -1.01035,2.38723 -0.43927,1.33969 -0.82979,2.47199 -0.86783,2.51623 -0.038,0.0442 -0.0692,0.16581 -0.0692,0.27017 0,0.10435 -0.0381,0.21329 -0.0847,0.24206 -0.0466,0.0288 -0.0847,0.14308 -0.0847,0.254 0,0.11093 -0.0381,0.22523 -0.0847,0.254 -0.0466,0.0288 -0.0847,0.14308 -0.0847,0.254 0,0.11093 -0.0381,0.22523 -0.0847,0.254 -0.0466,0.0288 -0.0847,0.14308 -0.0847,0.254 0,0.11093 -0.0381,0.22523 -0.0847,0.254 -0.0466,0.0288 -0.0847,0.14308 -0.0847,0.254 0,0.11093 -0.0381,0.22523 -0.0847,0.254 -0.0466,0.0288 -0.0847,0.14308 -0.0847,0.254 0,0.11093 -0.0381,0.22523 -0.0847,0.254 -0.0466,0.0288 -0.0847,0.16438 -0.0847,0.30133 0,0.13696 -0.0381,0.24901 -0.0847,0.24901 -0.0466,0 -0.0847,0.093 -0.0847,0.20667 0,0.11366 -0.0381,0.23022 -0.0847,0.25899 -0.0466,0.0288 -0.0847,0.16438 -0.0847,0.30133 0,0.13696 -0.0381,0.24901 -0.0847,0.24901 -0.0466,0 -0.0847,0.1143 -0.0847,0.254 0,0.1397 -0.0381,0.254 -0.0847,0.254 -0.0466,0 -0.0847,0.1143 -0.0847,0.254 0,0.1397 -0.0381,0.254 -0.0847,0.254 -0.0466,0 -0.0847,0.1143 -0.0847,0.254 0,0.1397 -0.0381,0.254 -0.0847,0.254 -0.0466,0 -0.0847,0.0589 -0.0847,0.13083 0,0.10478 -0.0632,0.1196 -0.3175,0.0744 -0.17463,-0.031 -0.3537,-0.0899 -0.39793,-0.13084 -0.0442,-0.0409 -0.16582,-0.0744 -0.27018,-0.0744 -0.10435,0 -0.21328,-0.0381 -0.24206,-0.0847 -0.0288,-0.0466 -0.14308,-0.0847 -0.254,-0.0847 -0.11092,0 -0.22522,-0.0381 -0.254,-0.0847 -0.0288,-0.0466 -0.13771,-0.0847 -0.24206,-0.0847 -0.10436,0 -0.22593,-0.0352 -0.27017,-0.0782 -0.0442,-0.043 -0.19473,-0.0906 -0.33443,-0.10583 -0.22646,-0.0247 -0.25685,-0.0621 -0.28029,-0.34518 -0.0152,-0.18379 0.0115,-0.3175 0.0635,-0.3175 0.0494,0 0.0898,-0.1143 0.0898,-0.254 0,-0.1397 0.0381,-0.254 0.0847,-0.254 0.0466,0 0.0847,-0.1143 0.0847,-0.254 0,-0.1397 0.0381,-0.254 0.0847,-0.254 0.0466,0 0.0847,-0.0876 0.0847,-0.19473 0,-0.1071 0.0312,-0.23093 0.0694,-0.27517 0.0382,-0.0442 0.1564,-0.36618 0.2627,-0.71543 0.1063,-0.34925 0.22746,-0.70116 0.26924,-0.78201 0.0418,-0.0809 0.076,-0.22149 0.076,-0.31251 0,-0.091 0.0381,-0.18903 0.0847,-0.21781 0.0466,-0.0288 0.0847,-0.14308 0.0847,-0.254 0,-0.11092 0.0381,-0.22522 0.0847,-0.254 0.0466,-0.0288 0.0847,-0.14308 0.0847,-0.254 0,-0.11092 0.0381,-0.22522 0.0847,-0.254 0.0466,-0.0288 0.0847,-0.14308 0.0847,-0.254 0,-0.11092 0.0381,-0.22522 0.0847,-0.254 0.0466,-0.0288 0.0847,-0.14308 0.0847,-0.254 0,-0.11093 0.0381,-0.22523 0.0847,-0.254 0.0466,-0.0288 0.0847,-0.14308 0.0847,-0.254 0,-0.11093 0.0381,-0.22523 0.0847,-0.254 0.0466,-0.0288 0.0847,-0.1268 0.0847,-0.21782 0,-0.091 0.0344,-0.23164 0.0764,-0.3125 0.042,-0.0809 0.12486,-0.31847 0.18405,-0.52802 0.0592,-0.20955 0.13912,-0.41719 0.17759,-0.46143 0.0385,-0.0442 0.07,-0.16581 0.07,-0.27017 0,-0.10435 0.0381,-0.21329 0.0847,-0.24206 0.0466,-0.0288 0.0847,-0.14308 0.0847,-0.254 0,-0.11093 0.0381,-0.22523 0.0847,-0.254 0.0466,-0.0288 0.0847,-0.14308 0.0847,-0.254 0,-0.11093 0.0381,-0.22523 0.0847,-0.254 0.0466,-0.0288 0.0847,-0.14308 0.0847,-0.254 0,-0.11093 0.0381,-0.22523 0.0847,-0.254 0.0466,-0.0288 0.0847,-0.14308 0.0847,-0.254 0,-0.11093 0.0381,-0.22523 0.0847,-0.254 0.0466,-0.0288 0.0847,-0.1268 0.0847,-0.21782 0,-0.091 0.0448,-0.2372 0.0995,-0.32485 0.0802,-0.12835 0.0719,-0.18699 -0.0423,-0.30123 -0.12609,-0.1261 -0.15597,-0.12776 -0.26885,-0.0149 -0.0699,0.0699 -0.127,0.18688 -0.127,0.26005 0,0.0732 -0.0317,0.13305 -0.0704,0.13305 -0.0387,0 -0.12443,0.10477 -0.1905,0.23283 -0.0661,0.12806 -0.18682,0.3067 -0.26831,0.39697 -0.0815,0.0903 -0.14817,0.19664 -0.14817,0.23637 0,0.0397 -0.0762,0.15404 -0.16933,0.254 -0.0931,0.1 -0.16933,0.23173 -0.16933,0.2928 0,0.0611 -0.0381,0.11103 -0.0847,0.11103 -0.0466,0 -0.0847,0.05 -0.0847,0.11103 0,0.0611 -0.0762,0.19283 -0.16933,0.2928 -0.0931,0.1 -0.16933,0.21426 -0.16933,0.254 0,0.0397 -0.0667,0.14804 -0.14817,0.24069 -0.0815,0.0926 -0.18984,0.24269 -0.24078,0.33346 -0.26326,0.46907 -0.34308,0.59378 -0.47889,0.74817 -0.0815,0.0926 -0.14816,0.21841 -0.14816,0.27948 0,0.0611 -0.0317,0.11104 -0.0704,0.11104 -0.0387,0 -0.12443,0.10477 -0.1905,0.23283 -0.0661,0.12806 -0.1495,0.27093 -0.18537,0.3175 -0.17553,0.22786 -1.41644,2.17149 -1.41644,2.21857 0,0.0298 -0.0633,0.12404 -0.14065,0.20951 -0.0774,0.0855 -0.18213,0.22632 -0.23283,0.31297 -0.0507,0.0867 -0.16643,0.26737 -0.25717,0.40158 -0.53486,0.79116 -1.23202,1.89201 -1.23202,1.94542 0,0.0343 -0.0586,0.12276 -0.13016,0.19651 -0.0716,0.0738 -0.25185,0.32461 -0.40058,0.55744 -0.14873,0.23283 -0.29947,0.46143 -0.33498,0.508 -0.1613,0.21153 -1.42028,2.16774 -1.42028,2.20685 0,0.0241 -0.0762,0.12569 -0.16933,0.22566 -0.0931,0.1 -0.16933,0.23172 -0.16933,0.29279 0,0.0611 -0.0335,0.11103 -0.0744,0.11103 -0.0409,0 -0.12174,0.1143 -0.1796,0.254 -0.0579,0.1397 -0.13869,0.254 -0.17961,0.254 -0.0409,0 -0.0744,0.0396 -0.0744,0.0879 0,0.0484 -0.22861,0.42789 -0.50801,0.84342 -0.2794,0.41552 -0.508,0.79506 -0.508,0.84341 0,0.0484 -0.0317,0.0879 -0.0703,0.0879 -0.0387,0 -0.12443,0.10478 -0.1905,0.23283 -0.0661,0.12806 -0.18682,0.3067 -0.26831,0.39697 -0.0815,0.0903 -0.14817,0.19666 -0.14817,0.23641 0,0.0397 -0.0379,0.11829 -0.0841,0.17453 -0.18644,0.22658 -1.43986,2.18533 -1.43986,2.25011 0,0.0383 -0.0688,0.13181 -0.15281,0.20787 -0.084,0.0761 -0.2063,0.2746 -0.27167,0.4412 -0.10228,0.26069 -0.1477,0.29567 -0.32585,0.25095 -0.11385,-0.0286 -0.36994,-0.16406 -0.56909,-0.30108 -0.19915,-0.13702 -0.40285,-0.24912 -0.45267,-0.24912 -0.0498,0 -0.0906,-0.0381 -0.0906,-0.0847 0,-0.0466 -0.0572,-0.0847 -0.127,-0.0847 -0.0699,0 -0.127,-0.0381 -0.127,-0.0847 0,-0.0466 -0.054,-0.0847 -0.11994,-0.0847 -0.066,0 -0.13264,-0.0286 -0.14817,-0.0635 -0.0353,-0.0795 -0.4863,-0.35444 -0.68439,-0.41726 -0.19791,-0.0628 -0.18769,-0.33056 0.0212,-0.55475 0.0931,-0.1 0.16933,-0.23172 0.16933,-0.29279 0,-0.0611 0.0335,-0.11103 0.0744,-0.11103 0.0409,0 0.12174,-0.1143 0.1796,-0.254 0.0579,-0.1397 0.13869,-0.254 0.17961,-0.254 0.0409,0 0.0744,-0.05 0.0744,-0.11103 0,-0.0611 0.0667,-0.18684 0.14817,-0.27949 0.0815,-0.0926 0.18984,-0.2427 0.24078,-0.33346 0.26326,-0.46908 0.34308,-0.59378 0.47889,-0.74817 0.0815,-0.0927 0.14816,-0.20096 0.14816,-0.24069 0,-0.0397 0.0762,-0.15404 0.16934,-0.254 0.0931,-0.1 0.16933,-0.23173 0.16933,-0.2928 0,-0.0611 0.0381,-0.11103 0.0847,-0.11103 0.0466,0 0.0847,-0.0476 0.0848,-0.10583 5e-5,-0.0582 0.0942,-0.21527 0.20924,-0.34902 0.11503,-0.13375 0.23186,-0.31473 0.25961,-0.40217 0.0277,-0.0874 0.086,-0.15898 0.12942,-0.15898 0.0434,0 0.079,-0.05 0.079,-0.11103 0,-0.0611 0.0667,-0.18684 0.14816,-0.27949 0.13581,-0.15439 0.21563,-0.27909 0.47889,-0.74817 0.0509,-0.0908 0.15929,-0.24082 0.24078,-0.33346 0.0815,-0.0926 0.14817,-0.20096 0.14817,-0.24069 0,-0.0397 0.0762,-0.15403 0.16933,-0.254 0.0931,-0.1 0.16933,-0.23172 0.16933,-0.29279 0,-0.0611 0.0335,-0.11104 0.0744,-0.11104 0.0409,0 0.12174,-0.1143 0.1796,-0.254 0.0579,-0.1397 0.13869,-0.254 0.17961,-0.254 0.0409,0 0.0744,-0.05 0.0744,-0.11103 0,-0.0611 0.0667,-0.18489 0.14817,-0.27516 0.0815,-0.0903 0.20223,-0.26891 0.26831,-0.39697 0.0661,-0.12806 0.1518,-0.23284 0.1905,-0.23284 0.0387,0 0.0704,-0.073 0.0704,-0.16228 0,-0.0892 0.0315,-0.17497 0.0699,-0.1905 0.0764,-0.0308 0.94606,-1.30184 0.94606,-1.38263 0,-0.0274 0.0385,-0.0958 0.0856,-0.15199 0.047,-0.0563 0.3413,-0.50231 0.65391,-0.99126 0.3126,-0.48895 0.59207,-0.90805 0.62105,-0.93134 0.029,-0.0233 0.10619,-0.14468 0.17158,-0.26978 0.0654,-0.12509 0.45228,-0.72639 0.85974,-1.33621 0.40746,-0.60982 0.74084,-1.14564 0.74084,-1.19072 0,-0.0451 0.0335,-0.0819 0.0744,-0.0819 0.0409,0 0.12174,-0.1143 0.17961,-0.254 0.0579,-0.1397 0.13257,-0.254 0.16601,-0.254 0.0334,0 0.10486,-0.0967 0.1587,-0.21485 0.0538,-0.11817 0.13591,-0.26105 0.1824,-0.3175 0.14201,-0.1725 1.44022,-2.17795 1.44022,-2.22483 0,-0.0241 0.0762,-0.1257 0.16933,-0.22566 0.0931,-0.1 0.16934,-0.23173 0.16934,-0.2928 0,-0.0611 0.0335,-0.11103 0.0744,-0.11103 0.0409,0 0.12174,-0.1143 0.17961,-0.254 0.0579,-0.1397 0.13868,-0.254 0.1796,-0.254 0.0409,0 0.0744,-0.0402 0.0744,-0.0893 0,-0.0491 0.14981,-0.30993 0.33293,-0.57957 l 0.33293,-0.49027 -0.17701,-0.17702 -0.17701,-0.17702 -0.21958,0.22743 c -0.12078,0.12509 -0.39097,0.37671 -0.60043,0.55916 -0.20946,0.18244 -0.78088,0.69985 -1.26983,1.14978 -0.48895,0.44994 -1.09816,1.00551 -1.35378,1.23461 -0.25563,0.22911 -0.67473,0.61095 -0.93134,0.84855 -0.2566,0.2376 -0.63721,0.5805 -0.84579,0.762 -0.20859,0.1815 -0.66579,0.60025 -1.016,0.93054 -1.81489,1.71167 -2.618,2.40513 -2.78544,2.40513 -0.0988,0 -0.18013,-0.0286 -0.18071,-0.0635 -10e-4,-0.0642 -0.29141,-0.39288 -1.19547,-1.35327 -0.59217,-0.62906 -0.61819,-0.80312 -0.17931,-1.19946 0.17463,-0.1577 0.52779,-0.48128 0.7848,-0.71908 0.25702,-0.23779 0.78033,-0.71344 1.16292,-1.057 0.38259,-0.34355 0.80245,-0.72455 0.93303,-0.84667 0.13057,-0.12211 0.42641,-0.38747 0.65741,-0.58968 0.23101,-0.20221 0.64861,-0.58719 0.92801,-0.85551 0.2794,-0.26832 0.6985,-0.65152 0.93133,-0.85156 0.23284,-0.20004 0.82202,-0.72946 1.30931,-1.17649 1.89166,-1.73538 1.8803,-1.72346 1.75912,-1.84464 -0.0909,-0.0909 -0.15497,-0.092 -0.3407,-0.006 -0.1258,0.0584 -0.22904,0.13481 -0.2294,0.16974 0,0.0349 -0.0737,0.0635 -0.16294,0.0635 -0.0893,0 -0.17497,0.0289 -0.1905,0.0643 -0.0155,0.0353 -0.37112,0.23446 -0.79022,0.44245 -0.4191,0.20799 -0.78105,0.39869 -0.80433,0.42376 -0.0233,0.0251 -0.34714,0.20185 -0.71967,0.39281 -0.37253,0.19097 -0.98213,0.50966 -1.35467,0.70818 -0.37253,0.19853 -0.96308,0.51054 -1.31233,0.69336 -0.34925,0.18282 -0.6712,0.36843 -0.71544,0.41245 -0.0442,0.044 -0.14583,0.08 -0.22577,0.08 -0.0799,0 -0.15805,0.0286 -0.17357,0.0635 -0.0155,0.0349 -0.21872,0.15706 -0.45156,0.27141 -0.23283,0.11434 -0.52446,0.27627 -0.64807,0.35983 -0.1236,0.0836 -0.28553,0.15193 -0.35983,0.15193 -0.0743,0 -0.13523,0.0286 -0.1354,0.0635 -1.7e-4,0.0349 -0.20958,0.15875 -0.46536,0.27517 -0.25579,0.11641 -0.4652,0.24024 -0.46537,0.27516 -1.7e-4,0.0349 -0.0689,0.0635 -0.1527,0.0635 -0.0838,0 -0.18952,0.0371 -0.23489,0.0825 -0.0454,0.0454 -0.38636,0.24179 -0.75776,0.43649 -1.86943,0.98001 -2.25098,1.181 -2.87662,1.51529 -0.37253,0.19905 -0.94403,0.50246 -1.27,0.67424 -0.32596,0.17178 -0.76411,0.40749 -0.97366,0.5238 -0.58708,0.32587 -1.74389,0.9457 -2.54,1.36094 -0.39582,0.20645 -0.89112,0.47531 -1.10067,0.59745 -0.20955,0.12214 -0.81915,0.44125 -1.35467,0.70916 -0.53551,0.2679 -0.98636,0.51688 -1.00188,0.55328 -0.0582,0.13655 -0.40097,0.0594 -0.50971,-0.11474 -0.27097,-0.4339 -0.43574,-0.76397 -0.43574,-0.87292 0,-0.0645 -0.0314,-0.13006 -0.0697,-0.14559 -0.12342,-0.05 -0.69232,-1.20151 -0.69232,-1.40133 0,-0.11378 0.0513,-0.19327 0.12473,-0.19327 0.0686,0 0.28767,-0.0942 0.48683,-0.20924 0.19916,-0.11509 0.64786,-0.3515 0.99711,-0.52536 0.34925,-0.17386 0.65405,-0.3378 0.67733,-0.3643 0.0233,-0.0265 0.38523,-0.21837 0.80433,-0.42637 0.4191,-0.20799 0.7747,-0.40709 0.79023,-0.44245 0.0155,-0.0353 0.10124,-0.0643 0.1905,-0.0643 0.0892,0 0.16227,-0.0288 0.16227,-0.064 0,-0.0352 0.12383,-0.11738 0.27517,-0.18263 0.15134,-0.0652 0.3763,-0.18885 0.4999,-0.27467 0.12361,-0.0858 0.28236,-0.15603 0.35278,-0.15603 0.0704,0 0.14074,-0.0287 0.15627,-0.0639 0.0155,-0.0351 0.29492,-0.19629 0.62088,-0.35813 0.32597,-0.16184 0.61172,-0.3148 0.635,-0.33992 0.0233,-0.0251 0.42334,-0.2397 0.889,-0.47685 0.46567,-0.23714 1.13242,-0.5843 1.48167,-0.77145 1.49176,-0.7994 2.03238,-1.0863 2.75167,-1.46028 0.4191,-0.2179 0.93345,-0.49192 1.143,-0.60892 0.20955,-0.11701 0.70485,-0.38568 1.10066,-0.59706 0.39582,-0.21137 0.98637,-0.52773 1.31234,-0.703 0.32596,-0.17528 0.89746,-0.47433 1.27,-0.66456 0.37253,-0.19023 0.69638,-0.36601 0.71966,-0.39063 0.0233,-0.0246 0.34714,-0.201 0.71967,-0.39197 0.37253,-0.19097 0.98214,-0.50988 1.35467,-0.70869 0.37253,-0.19882 0.98213,-0.51827 1.35467,-0.70991 0.37253,-0.19163 0.69003,-0.377 0.70555,-0.41193 0.0155,-0.0349 0.0775,-0.0635 0.1378,-0.0635 0.16786,0 0.32962,-0.22548 0.21332,-0.29736 -0.052,-0.0321 -0.0725,-0.11597 -0.0455,-0.1863 0.0367,-0.0957 0.0115,-0.11236 -0.10007,-0.0663 -0.21474,0.0886 -0.70091,0.21865 -0.99579,0.26641 -0.1397,0.0226 -0.3302,0.0738 -0.42333,0.11365 -0.0931,0.0399 -0.28364,0.0961 -0.42334,0.12502 -0.24877,0.0514 -0.59156,0.1348 -1.27,0.30891 -0.18627,0.0478 -0.46284,0.10742 -0.61462,0.13248 -0.15177,0.0251 -0.29689,0.0795 -0.32249,0.12089 -0.0256,0.0414 -0.1754,0.0753 -0.33289,0.0753 -0.15749,0 -0.30728,0.0339 -0.33288,0.0753 -0.0256,0.0414 -0.17073,0.0958 -0.3225,0.12089 -0.15177,0.0251 -0.43788,0.0864 -0.63579,0.13634 -0.1979,0.0499 -0.52175,0.13164 -0.71966,0.18158 -0.19791,0.0499 -0.48401,0.11129 -0.63579,0.13635 -0.15177,0.0251 -0.29689,0.0795 -0.32249,0.12089 -0.0256,0.0414 -0.1754,0.0753 -0.33289,0.0753 -0.15749,0 -0.30728,0.0339 -0.33288,0.0753 -0.0256,0.0414 -0.17073,0.0958 -0.3225,0.12088 -0.15177,0.0251 -0.4474,0.0892 -0.65695,0.14247 -0.20955,0.0533 -0.50518,0.11741 -0.65695,0.14247 -0.15178,0.0251 -0.2969,0.0795 -0.3225,0.12089 -0.0256,0.0414 -0.1754,0.0753 -0.33289,0.0753 -0.15748,0 -0.30988,0.0381 -0.33866,0.0847 -0.0288,0.0466 -0.17581,0.0847 -0.32673,0.0847 -0.15092,0 -0.31756,0.0432 -0.37031,0.0959 -0.0528,0.0527 -0.1461,0.0766 -0.20744,0.053 -0.10205,-0.0393 -0.15367,-0.18721 -0.4213,-1.20721 -0.0489,-0.18627 -0.12299,-0.42619 -0.16471,-0.53316 -0.0417,-0.10695 -0.0759,-0.29936 -0.0759,-0.42756 0,-0.1282 -0.0411,-0.27416 -0.0913,-0.32437 -0.0502,-0.0502 -0.0788,-0.2007 -0.0635,-0.33443 0.0241,-0.21071 0.073,-0.25089 0.36645,-0.30115 0.18627,-0.0319 0.51012,-0.10133 0.71967,-0.15429 0.20955,-0.0529 0.50518,-0.11678 0.65695,-0.14184 0.15177,-0.0251 0.2969,-0.0795 0.3225,-0.12089 0.0256,-0.0414 0.17539,-0.0753 0.33288,-0.0753 0.15749,0 0.30989,-0.0381 0.33867,-0.0847 0.0288,-0.0466 0.18118,-0.0847 0.33866,-0.0847 0.15749,0 0.30989,-0.0381 0.33867,-0.0847 0.0288,-0.0466 0.18118,-0.0847 0.33867,-0.0847 0.15748,0 0.30988,-0.0381 0.33866,-0.0847 0.0288,-0.0466 0.18118,-0.0847 0.33867,-0.0847 0.15749,0 0.30989,-0.0381 0.33867,-0.0847 0.0288,-0.0466 0.16213,-0.0847 0.29633,-0.0847 0.1342,0 0.26755,-0.0381 0.29633,-0.0847 0.0288,-0.0466 0.18118,-0.0847 0.33867,-0.0847 0.15749,0 0.30989,-0.0381 0.33867,-0.0847 0.0288,-0.0466 0.18118,-0.0847 0.33866,-0.0847 0.15749,0 0.30989,-0.0381 0.33867,-0.0847 0.0288,-0.0466 0.18118,-0.0847 0.33867,-0.0847 0.15748,0 0.30988,-0.0381 0.33866,-0.0847 0.0288,-0.0466 0.18118,-0.0847 0.33867,-0.0847 0.15749,0 0.30729,-0.0339 0.33289,-0.0753 0.0256,-0.0414 0.17072,-0.0958 0.32249,-0.12089 0.15178,-0.0251 0.4474,-0.0892 0.65695,-0.14246 0.20955,-0.0533 0.50519,-0.11741 0.65696,-0.14247 0.15177,-0.0251 0.29689,-0.0795 0.32249,-0.12089 0.0256,-0.0414 0.1754,-0.0753 0.33289,-0.0753 0.15749,0 0.30989,-0.0381 0.33867,-0.0847 0.0288,-0.0466 0.18117,-0.0847 0.33866,-0.0847 0.15749,0 0.30989,-0.0381 0.33867,-0.0847 0.0288,-0.0466 0.12628,-0.0847 0.21666,-0.0847 0.11398,0 0.16434,-0.0584 0.16434,-0.1905 v -0.1905 l -2.05317,-0.0225 c -1.12924,-0.0124 -14.59759,-0.0411 -29.92967,-0.0637 l -27.8765,-0.0412 v -1.52399 -1.524 l 27.8765,0.0398 c 15.33208,0.0219 28.81948,0.0614 29.97201,0.0878 1.79765,0.0412 2.0955,0.0306 2.0955,-0.0749 0,-0.0676 0.0231,-0.18322 0.0514,-0.25688 0.0386,-0.10053 -0.002,-0.13392 -0.16434,-0.13392 -0.11865,0 -0.23928,-0.0381 -0.26805,-0.0847 -0.0288,-0.0466 -0.16213,-0.0847 -0.29634,-0.0847 -0.1342,0 -0.26755,-0.0381 -0.29633,-0.0847 -0.0288,-0.0466 -0.16213,-0.0847 -0.29633,-0.0847 -0.13421,0 -0.26756,-0.0381 -0.29634,-0.0847 -0.0288,-0.0466 -0.16213,-0.0847 -0.29633,-0.0847 -0.13421,0 -0.26756,-0.0381 -0.29633,-0.0847 -0.0288,-0.0466 -0.14585,-0.0847 -0.26015,-0.0847 -0.1143,0 -0.27398,-0.0334 -0.35484,-0.0743 -0.22546,-0.1139 -0.73489,-0.26439 -0.89501,-0.26439 -0.0788,0 -0.20946,-0.0344 -0.29032,-0.0764 -0.0809,-0.042 -0.31847,-0.12338 -0.52802,-0.18078 -0.80627,-0.22085 -0.97836,-0.27396 -1.12068,-0.34587 -0.0809,-0.0408 -0.24054,-0.0743 -0.35484,-0.0743 -0.1143,0 -0.23137,-0.0381 -0.26015,-0.0847 -0.0288,-0.0466 -0.16213,-0.0847 -0.29633,-0.0847 -0.1342,0 -0.26755,-0.0381 -0.29633,-0.0847 -0.0288,-0.0466 -0.16213,-0.0847 -0.29634,-0.0847 -0.1342,0 -0.26755,-0.0381 -0.29633,-0.0847 -0.0288,-0.0466 -0.16213,-0.0847 -0.29633,-0.0847 -0.13421,0 -0.26756,-0.0381 -0.29634,-0.0847 -0.0288,-0.0466 -0.16213,-0.0847 -0.29633,-0.0847 -0.1342,0 -0.26755,-0.0381 -0.29633,-0.0847 -0.0288,-0.0466 -0.16213,-0.0847 -0.29634,-0.0847 -0.1342,0 -0.26755,-0.0381 -0.29633,-0.0847 -0.0288,-0.0466 -0.16213,-0.0847 -0.29633,-0.0847 -0.13421,0 -0.26756,-0.0381 -0.29634,-0.0847 -0.0288,-0.0466 -0.14584,-0.0847 -0.26014,-0.0847 -0.1143,0 -0.27398,-0.0334 -0.35484,-0.0743 -0.21465,-0.10845 -0.73193,-0.2644 -0.87698,-0.2644 -0.0689,0 -0.22782,-0.0476 -0.35316,-0.10583 -0.17766,-0.0825 -0.22803,-0.1656 -0.22855,-0.37702 -3.4e-4,-0.14915 0.0335,-0.3587 0.0752,-0.46566 0.0417,-0.10697 0.12163,-0.36594 0.17759,-0.57549 0.0559,-0.20955 0.13612,-0.44716 0.17815,-0.52802 0.042,-0.0809 0.0764,-0.24053 0.0764,-0.35483 0,-0.1143 0.0381,-0.23137 0.0847,-0.26015 0.0466,-0.0288 0.0847,-0.14533 0.0847,-0.259 0,-0.17975 0.0386,-0.20666 0.29634,-0.20666 0.16298,0 0.29633,0.0381 0.29633,0.0847 0,0.0466 0.083,0.0847 0.18449,0.0847 0.19487,0 0.68917,0.13959 0.9362,0.26439 0.0809,0.0409 0.24053,0.0743 0.35483,0.0743 0.1143,0 0.23137,0.0381 0.26015,0.0847 0.0288,0.0466 0.16213,0.0847 0.29633,0.0847 0.1342,0 0.26755,0.0381 0.29633,0.0847 0.0288,0.0466 0.16213,0.0847 0.29634,0.0847 0.1342,0 0.26755,0.0381 0.29633,0.0847 0.0288,0.0466 0.16213,0.0847 0.29633,0.0847 0.13421,0 0.26756,0.0381 0.29634,0.0847 0.0288,0.0466 0.16213,0.0847 0.29633,0.0847 0.1342,0 0.26755,0.0381 0.29633,0.0847 0.0288,0.0466 0.16213,0.0847 0.29634,0.0847 0.1342,0 0.26755,0.0381 0.29633,0.0847 0.0288,0.0466 0.16213,0.0847 0.29633,0.0847 0.13421,0 0.26756,0.0381 0.29634,0.0847 0.0288,0.0466 0.14308,0.0847 0.254,0.0847 0.11092,0 0.22522,0.0381 0.254,0.0847 0.0288,0.0466 0.16213,0.0847 0.29633,0.0847 0.1342,0 0.26755,0.0381 0.29633,0.0847 0.0288,0.0466 0.14354,0.0847 0.25502,0.0847 0.11148,0 0.2902,0.0341 0.39717,0.0758 0.10696,0.0417 0.36593,0.12164 0.57548,0.17759 0.20955,0.0559 0.44716,0.13612 0.52802,0.17815 0.0809,0.042 0.24053,0.0764 0.35483,0.0764 0.1143,0 0.23137,0.0381 0.26015,0.0847 0.0288,0.0466 0.16213,0.0847 0.29634,0.0847 0.1342,0 0.26755,0.0381 0.29633,0.0847 0.0288,0.0466 0.16213,0.0847 0.29633,0.0847 0.13421,0 0.26756,0.0381 0.29634,0.0847 0.0288,0.0466 0.14584,0.0847 0.26014,0.0847 0.1143,0 0.27397,0.0334 0.35484,0.0743 0.2248,0.11357 0.7347,0.26439 0.89386,0.26439 0.24958,0 0.15276,-0.21689 -0.17534,-0.39284 -0.46679,-0.25031 -0.73533,-0.40597 -0.78317,-0.45396 -0.0233,-0.0234 -0.15663,-0.0995 -0.29633,-0.1692 -0.1397,-0.0697 -0.27305,-0.14584 -0.29634,-0.1692 -0.0233,-0.0234 -0.12806,-0.0901 -0.23283,-0.1483 -0.10478,-0.0582 -0.27623,-0.15346 -0.381,-0.21166 -0.10478,-0.0582 -0.20955,-0.12489 -0.23283,-0.14817 -0.0233,-0.0233 -0.12806,-0.09 -0.23284,-0.14817 -0.10477,-0.0582 -0.27622,-0.15346 -0.381,-0.21166 -0.10477,-0.0582 -0.20955,-0.12489 -0.23283,-0.14817 -0.0233,-0.0233 -0.13328,-0.0935 -0.24443,-0.15613 -0.605,-0.34065 -0.82146,-0.46731 -1.82991,-1.07073 -0.60536,-0.36223 -1.23401,-0.73413 -1.397,-0.82645 -0.16298,-0.0923 -0.39746,-0.23959 -0.52107,-0.32727 -0.1236,-0.0877 -0.25107,-0.15942 -0.28326,-0.15942 -0.0322,0 -0.15966,-0.0717 -0.28326,-0.15942 -0.12361,-0.0877 -0.36761,-0.24008 -0.54224,-0.33867 -0.17462,-0.0986 -0.46037,-0.25991 -0.635,-0.35849 -0.17462,-0.0986 -0.41863,-0.25099 -0.54224,-0.33867 -0.1236,-0.0877 -0.24463,-0.15942 -0.26895,-0.15942 -0.0243,0 -0.35461,-0.1905 -0.73398,-0.42333 -0.37937,-0.23284 -0.70966,-0.42334 -0.73397,-0.42334 -0.0243,0 -0.14535,-0.0717 -0.26896,-0.15942 -0.1236,-0.0877 -0.36239,-0.23649 -0.53063,-0.3307 -0.64358,-0.36037 -0.7113,-0.40007 -0.75244,-0.44121 -0.0416,-0.0416 -0.14016,-0.0993 -0.75243,-0.44032 -0.16824,-0.0937 -0.344,-0.20037 -0.39057,-0.23701 -0.0466,-0.0366 -0.22754,-0.14688 -0.40216,-0.24498 -0.17463,-0.0981 -0.44563,-0.25097 -0.60224,-0.33973 -0.1566,-0.0888 -0.37567,-0.21258 -0.48683,-0.27516 -0.11115,-0.0626 -0.22115,-0.13285 -0.24443,-0.15613 -0.0233,-0.0233 -0.11854,-0.084 -0.21167,-0.13495 -0.40322,-0.22054 -0.59544,-0.3335 -0.635,-0.37319 -0.0233,-0.0233 -0.15663,-0.0995 -0.29633,-0.1692 -0.1397,-0.0697 -0.27305,-0.14584 -0.29634,-0.16919 -0.0233,-0.0234 -0.12805,-0.0901 -0.23283,-0.14831 -0.10477,-0.0582 -0.27622,-0.15345 -0.381,-0.21166 -0.10477,-0.0582 -0.20955,-0.12489 -0.23283,-0.14817 -0.0396,-0.0396 -0.23244,-0.15288 -0.635,-0.37305 -0.0931,-0.0509 -0.18839,-0.11173 -0.21167,-0.13508 -0.0233,-0.0234 -0.15663,-0.0995 -0.29633,-0.1692 -0.1397,-0.0697 -0.27305,-0.14584 -0.29634,-0.1692 -0.0411,-0.0413 -0.10858,-0.0808 -0.75243,-0.44134 -0.16824,-0.0942 -0.40115,-0.23704 -0.51757,-0.31741 -0.11641,-0.0804 -0.33549,-0.19951 -0.48683,-0.26476 -0.16504,-0.0712 -0.27517,-0.17981 -0.27517,-0.2715 0,-0.1506 0.22658,-0.65459 0.33139,-0.73713 0.0296,-0.0233 0.14801,-0.2233 0.26321,-0.4445 0.11519,-0.22119 0.23809,-0.40216 0.27309,-0.40216 0.035,0 0.0636,-0.0762 0.0636,-0.16934 0,-0.0931 0.0335,-0.16933 0.0744,-0.16933 0.0409,0 0.12122,-0.11304 0.17844,-0.25119 0.17117,-0.41324 0.28139,-0.45589 0.64884,-0.25111 0.1793,0.0999 0.36409,0.21166 0.41066,0.2483 0.0466,0.0366 0.22232,0.1433 0.39057,0.23702 0.61227,0.34105 0.71086,0.39874 0.75243,0.44031 0.0416,0.0416 0.14016,0.0993 0.75243,0.44032 0.16825,0.0937 0.344,0.20038 0.39057,0.23702 0.0466,0.0366 0.22232,0.1433 0.39057,0.23701 0.61227,0.34105 0.71086,0.39875 0.75243,0.44032 0.0411,0.0411 0.10885,0.0808 0.75243,0.44121 0.16825,0.0942 0.40704,0.24302 0.53064,0.3307 0.12361,0.0877 0.24005,0.15942 0.25876,0.15942 0.0187,0 0.82757,0.47625 1.79745,1.05834 0.96988,0.58208 1.78101,1.05833 1.8025,1.05833 0.0215,0 0.14021,0.0717 0.26382,0.15942 0.20961,0.14869 0.34478,0.22864 1.17723,0.69627 0.17463,0.0981 0.3556,0.20834 0.40217,0.24498 0.0466,0.0366 0.22754,0.14688 0.40217,0.24498 0.83245,0.46763 0.96762,0.54757 1.17723,0.69626 0.12361,0.0877 0.25108,0.15942 0.28327,0.15942 0.0322,0 0.15966,0.0717 0.28326,0.15943 0.12361,0.0877 0.36761,0.24008 0.54224,0.33866 0.80398,0.45389 0.93431,0.52983 1.13485,0.66123 0.36954,0.24213 0.74339,0.4521 0.89715,0.50388 0.0815,0.0274 0.14816,0.0791 0.14816,0.1148 0,0.0357 0.0667,0.0867 0.14817,0.11339 0.0815,0.0266 0.33867,0.16613 0.5715,0.30995 0.23284,0.14382 0.49001,0.28329 0.5715,0.30995 0.0815,0.0267 0.14817,0.075 0.14817,0.10745 0,0.0324 0.13335,0.11132 0.29633,0.17526 0.16299,0.064 0.29634,0.14727 0.29634,0.18514 0,0.0379 0.0572,0.0689 0.127,0.0689 0.0699,0 0.127,0.031 0.127,0.0689 0,0.0379 0.13335,0.12119 0.29633,0.18513 0.16298,0.064 0.29633,0.14282 0.29633,0.17527 0,0.0324 0.0667,0.0801 0.14817,0.10597 0.14534,0.0461 0.61511,0.31258 0.6985,0.39623 0.0233,0.0234 0.15663,0.0995 0.29633,0.1692 0.1397,0.0697 0.27305,0.14584 0.29634,0.1692 0.0233,0.0234 0.11853,0.0841 0.21166,0.13508 0.40323,0.22054 0.59545,0.33351 0.635,0.37319 0.0233,0.0234 0.14755,0.0967 0.27615,0.163 0.21222,0.1094 0.2452,0.10547 0.35697,-0.0425 0.0677,-0.0896 0.11491,-0.18863 0.10485,-0.21995 -0.0275,-0.0857 -7.91688,-8.18663 -8.42147,-8.64732 -0.21757,-0.19865 -0.25083,-0.52455 -0.0642,-0.62899 0.0695,-0.0389 0.52411,-0.45987 1.01033,-0.93554 0.48622,-0.47568 0.91652,-0.86487 0.95622,-0.86487 0.0609,0 1.7099,1.66738 4.14492,4.191 2.35098,2.43653 4.62583,4.69277 4.69092,4.65254 0.094,-0.0581 0.10461,-0.2922 0.0133,-0.2922 -0.0356,0 -0.12968,-0.14288 -0.20911,-0.3175 -0.14529,-0.31946 -0.40953,-0.78917 -0.4882,-0.86784 -0.0369,-0.0368 -0.1526,-0.24396 -0.54415,-0.97366 -0.05,-0.0931 -0.1099,-0.18839 -0.13318,-0.21167 -0.0369,-0.0369 -0.15261,-0.24396 -0.54415,-0.97367 -0.05,-0.0931 -0.1099,-0.18838 -0.13319,-0.21166 -0.0233,-0.0233 -0.13474,-0.21379 -0.24768,-0.42334 -0.11295,-0.20955 -0.22725,-0.40005 -0.254,-0.42333 -0.0424,-0.0369 -0.14835,-0.22428 -0.55046,-0.97367 -0.05,-0.0931 -0.10991,-0.18838 -0.13319,-0.21166 -0.0233,-0.0233 -0.12425,-0.19474 -0.22438,-0.381 -0.26983,-0.502 -0.48291,-0.87896 -0.77979,-1.37956 -0.14621,-0.24653 -0.26583,-0.47999 -0.26583,-0.5188 0,-0.0388 -0.0477,-0.11019 -0.10608,-0.15861 -0.0583,-0.0484 -0.23236,-0.32931 -0.3867,-0.6242 -0.29416,-0.562 -0.39339,-0.73692 -0.61613,-1.08614 -0.0744,-0.11661 -0.24992,-0.42158 -0.39007,-0.67769 -0.41698,-0.762 -0.65037,-1.14127 -0.72073,-1.17122 -0.0365,-0.0155 -0.0663,-0.10125 -0.0663,-0.1905 0,-0.0893 -0.0286,-0.16288 -0.0635,-0.1636 -0.0349,-7.6e-4 -0.15672,-0.19122 -0.27066,-0.42333 -0.11394,-0.23211 -0.23776,-0.42202 -0.27517,-0.42202 -0.0374,0 -0.068,-0.073 -0.068,-0.16228 0,-0.0893 -0.0286,-0.17497 -0.0635,-0.1905 -0.0349,-0.0155 -0.15521,-0.20919 -0.2673,-0.43039 -0.1121,-0.22119 -0.23593,-0.40216 -0.27517,-0.40216 -0.0393,0 -0.0714,-0.073 -0.0714,-0.16228 0,-0.0892 -0.0286,-0.17498 -0.0635,-0.1905 -0.0795,-0.0353 -0.35444,-0.4863 -0.41726,-0.68439 -0.0258,-0.0815 -0.0806,-0.14817 -0.12178,-0.14817 -0.0411,0 -0.0748,-0.073 -0.0748,-0.16227 0,-0.0893 -0.0286,-0.17498 -0.0635,-0.1905 -0.0795,-0.0353 -0.35444,-0.48631 -0.41726,-0.68439 -0.0259,-0.0815 -0.0807,-0.14817 -0.12178,-0.14817 -0.0411,0 -0.0748,-0.073 -0.0748,-0.16228 0,-0.0892 -0.0286,-0.17497 -0.0635,-0.1905 -0.0795,-0.0353 -0.35444,-0.4863 -0.41726,-0.68439 -0.0258,-0.0815 -0.0806,-0.14816 -0.12178,-0.14816 -0.0411,0 -0.0748,-0.0762 -0.0748,-0.16934 0,-0.0931 -0.0286,-0.16933 -0.0636,-0.16933 -0.035,0 -0.1579,-0.18097 -0.2731,-0.40217 -0.1152,-0.22119 -0.22943,-0.42121 -0.25385,-0.4445 -0.0387,-0.0369 -0.15061,-0.23639 -0.54622,-0.97366 -0.05,-0.0931 -0.10991,-0.18839 -0.13319,-0.21167 -0.0233,-0.0233 -0.12425,-0.19473 -0.22437,-0.381 -0.41573,-0.77343 -0.55758,-1.02019 -0.63027,-1.09643 -0.12965,-0.13598 -0.085,-0.44744 0.0715,-0.49862 0.0815,-0.0267 0.33867,-0.16492 0.5715,-0.30726 0.23284,-0.14233 0.56621,-0.32446 0.74084,-0.40471 0.17462,-0.0803 0.3175,-0.17504 0.3175,-0.21062 0,-0.0356 0.0476,-0.0655 0.10583,-0.0666 0.0582,-0.001 0.20108,-0.0764 0.3175,-0.16745 0.26386,-0.20639 0.47387,-0.21469 0.53524,-0.0212 0.0628,0.19808 0.33777,0.64906 0.41726,0.68439 0.0349,0.0155 0.0635,0.0981 0.0635,0.18344 0,0.0854 0.0286,0.16792 0.0635,0.18344 0.0795,0.0353 0.35444,0.48631 0.41726,0.68439 0.0258,0.0815 0.0806,0.14817 0.12178,0.14817 0.0411,0 0.0748,0.0762 0.0748,0.16933 0,0.0931 0.0288,0.16934 0.064,0.16934 0.0352,0 0.11788,0.12382 0.18372,0.27516 0.0658,0.15135 0.14182,0.29422 0.16884,0.3175 0.0469,0.0404 0.35022,0.59018 0.54857,0.99418 0.0513,0.10441 0.12178,0.19013 0.15671,0.1905 0.0349,3.4e-4 0.0635,0.0394 0.0635,0.0868 0,0.0474 0.1524,0.33706 0.33867,0.64366 0.18626,0.3066 0.33866,0.57194 0.33866,0.58964 0,0.0177 0.1524,0.28118 0.33867,0.58551 0.18627,0.30432 0.33867,0.57035 0.33867,0.59118 0,0.0208 0.20955,0.38344 0.46566,0.80582 0.25612,0.42237 0.46567,0.78499 0.46567,0.80582 0,0.0208 0.1524,0.28685 0.33867,0.59118 0.18626,0.30432 0.33866,0.57102 0.33866,0.59266 0,0.0217 0.1524,0.28835 0.33867,0.59267 0.18627,0.30432 0.33867,0.57245 0.33867,0.59584 0,0.0234 0.10323,0.20369 0.2294,0.40068 0.12618,0.19698 0.33927,0.5677 0.47353,0.82381 0.13427,0.25612 0.28263,0.51243 0.3297,0.56959 0.0471,0.0571 0.19927,0.32385 0.33821,0.59266 0.13894,0.26882 0.29856,0.5459 0.3547,0.61575 0.0562,0.0699 0.15643,0.2413 0.22286,0.381 0.0664,0.1397 0.22669,0.41327 0.35617,0.60793 0.12948,0.19465 0.23543,0.37395 0.23543,0.39844 0,0.0245 0.12016,0.24622 0.26703,0.49274 0.14688,0.24653 0.3688,0.63873 0.49318,0.87156 0.29931,0.56036 0.45817,0.83739 0.50979,0.889 0.0837,0.0838 0.35008,0.55343 0.39609,0.6985 0.0258,0.0815 0.0806,0.14817 0.12178,0.14817 0.0411,0 0.0748,0.0762 0.0748,0.16933 0,0.0931 0.0337,0.16933 0.0748,0.16933 0.0411,0 0.0959,0.0667 0.12177,0.14817 0.046,0.14507 0.31236,0.61475 0.3961,0.6985 0.0233,0.0233 0.1214,0.19473 0.21805,0.381 0.24011,0.46279 0.40786,0.75377 0.46369,0.80433 0.0257,0.0233 0.11247,0.17569 0.19281,0.33867 0.13888,0.28176 0.36207,0.68225 0.50627,0.90843 0.11233,0.1762 0.39718,-0.0649 0.39718,-0.33613 0,-0.1285 -0.0381,-0.23363 -0.0847,-0.23363 -0.0466,0 -0.0847,-0.1524 -0.0847,-0.33867 0,-0.18627 -0.0381,-0.33867 -0.0847,-0.33867 -0.0466,0 -0.0847,-0.1311 -0.0847,-0.29133 0,-0.16024 -0.0339,-0.31228 -0.0753,-0.33788 -0.0414,-0.0256 -0.0986,-0.18025 -0.127,-0.34367 -0.0284,-0.16341 -0.0749,-0.43082 -0.10338,-0.59423 -0.0284,-0.16342 -0.0856,-0.31807 -0.127,-0.34367 -0.0414,-0.0256 -0.0753,-0.1754 -0.0753,-0.33288 0,-0.15749 -0.0381,-0.30989 -0.0847,-0.33867 -0.0466,-0.0288 -0.0847,-0.16213 -0.0847,-0.29633 0,-0.13421 -0.0339,-0.26495 -0.0753,-0.29055 -0.0414,-0.0256 -0.0958,-0.17073 -0.12089,-0.3225 -0.0251,-0.15177 -0.0892,-0.4474 -0.14247,-0.65695 -0.0533,-0.20955 -0.1174,-0.50518 -0.14247,-0.65695 -0.0251,-0.15178 -0.0795,-0.2969 -0.12088,-0.3225 -0.0414,-0.0256 -0.0753,-0.1754 -0.0753,-0.33289 0,-0.15748 -0.0381,-0.30988 -0.0847,-0.33866 -0.0466,-0.0288 -0.0847,-0.16213 -0.0847,-0.29634 0,-0.1342 -0.0341,-0.26506 -0.0757,-0.2908 -0.0417,-0.0257 -0.0973,-0.18991 -0.12375,-0.36483 -0.11218,-0.74279 -0.16212,-0.95721 -0.23322,-1.00115 -0.0414,-0.0256 -0.0753,-0.15635 -0.0753,-0.29055 0,-0.1342 -0.0339,-0.26495 -0.0753,-0.29055 -0.0414,-0.0256 -0.0958,-0.17072 -0.12089,-0.3225 -0.0251,-0.15177 -0.0892,-0.4474 -0.14246,-0.65695 -0.0533,-0.20955 -0.11741,-0.50518 -0.14247,-0.65695 -0.0251,-0.15177 -0.0795,-0.2969 -0.12089,-0.3225 -0.0414,-0.0256 -0.0753,-0.21174 -0.0753,-0.41365 0,-0.35925 0.007,-0.36814 0.3175,-0.41509 0.7427,-0.11223 0.95669,-0.1621 1.00061,-0.23316 0.0256,-0.0414 0.1754,-0.0753 0.33289,-0.0753 0.15749,0 0.30659,-0.0328 0.33136,-0.0728 0.0248,-0.0401 0.22283,-0.0972 0.44016,-0.127 0.46042,-0.0631 0.61834,0.0668 0.62279,0.51235 10e-4,0.14859 0.0366,0.29111 0.078,0.31671 0.0414,0.0256 0.0958,0.17073 0.12089,0.3225 0.0251,0.15177 0.0892,0.4474 0.14247,0.65695 0.0533,0.20955 0.1174,0.50518 0.14246,0.65695 0.0251,0.15178 0.0795,0.2969 0.12089,0.3225 0.0414,0.0256 0.0753,0.15635 0.0753,0.29055 0,0.1342 0.0339,0.26495 0.0753,0.29055 0.0414,0.0256 0.0958,0.17073 0.12089,0.3225 0.0251,0.15177 0.0888,0.4474 0.14156,0.65695 0.0528,0.20955 0.11749,0.4953 0.14376,0.635 0.0263,0.1397 0.0747,0.2921 0.10758,0.33867 0.0329,0.0466 0.1106,0.31326 0.17267,0.59266 0.0621,0.2794 0.14661,0.57583 0.18789,0.65872 0.0413,0.0829 0.0916,0.25435 0.11186,0.381 0.0203,0.12666 0.0991,0.43983 0.17528,0.69595 0.0761,0.25612 0.14593,0.54379 0.15506,0.63928 0.009,0.0955 0.041,0.2131 0.0709,0.26138 0.053,0.0857 0.19938,0.62312 0.28518,1.04667 0.0236,0.11642 0.0752,0.28787 0.11478,0.381 0.0395,0.0931 0.0908,0.26459 0.11383,0.381 0.0427,0.21565 0.30408,1.31057 0.35875,1.50284 0.0166,0.0582 0.0834,0.10583 0.14846,0.10583 0.0926,0 0.11196,-0.12452 0.089,-0.5715 -0.0161,-0.31432 -0.0495,-5.69595 -0.0742,-11.95917 -0.0247,-6.26321 -0.0687,-11.66389 -0.0978,-12.0015 l -0.0529,-0.61383 h 1.57582 1.57582 l 0.0454,3.40783 c 0.025,1.87431 0.0643,7.49406 0.0873,12.48834 l 0.0419,9.0805 h 0.33791 c 0.27805,0 0.33791,-0.0291 0.33791,-0.16434 0,-0.0904 0.0381,-0.18788 0.0847,-0.21666 0.0466,-0.0288 0.0847,-0.18343 0.0847,-0.34367 0,-0.16023 0.0339,-0.29133 0.0754,-0.29133 0.0415,0 0.0986,-0.13335 0.127,-0.29634 0.0284,-0.16298 0.0748,-0.43003 0.10329,-0.59345 0.0284,-0.16341 0.0856,-0.31806 0.127,-0.34366 0.0414,-0.0256 0.0753,-0.15635 0.0753,-0.29055 0,-0.13421 0.0339,-0.26495 0.0753,-0.29055 0.0414,-0.0256 0.0958,-0.17073 0.12088,-0.3225 0.0251,-0.15177 0.0892,-0.4474 0.14247,-0.65695 0.0533,-0.20955 0.11741,-0.50518 0.14247,-0.65695 0.0251,-0.15178 0.0795,-0.2969 0.12089,-0.3225 0.0414,-0.0256 0.0753,-0.15635 0.0753,-0.29055 0,-0.13421 0.0339,-0.26495 0.0753,-0.29055 0.0414,-0.0256 0.0986,-0.18025 0.127,-0.34367 0.0284,-0.16341 0.075,-0.43082 0.10338,-0.59423 0.0284,-0.16342 0.0856,-0.31807 0.127,-0.34367 0.0414,-0.0256 0.0753,-0.1754 0.0753,-0.33288 0,-0.15749 0.0381,-0.30989 0.0847,-0.33867 0.0466,-0.0288 0.0847,-0.16213 0.0847,-0.29633 0,-0.13421 0.0381,-0.26756 0.0847,-0.29634 0.0466,-0.0288 0.0847,-0.18342 0.0847,-0.34366 0,-0.16023 0.0381,-0.29134 0.0847,-0.29134 0.0466,0 0.0847,-0.1311 0.0847,-0.29133 0,-0.16024 0.0339,-0.31228 0.0753,-0.33788 0.0414,-0.0256 0.0986,-0.18025 0.127,-0.34367 0.0284,-0.16341 0.075,-0.43082 0.10338,-0.59423 0.0284,-0.16342 0.0856,-0.31807 0.127,-0.34367 0.0414,-0.0256 0.0753,-0.17764 0.0753,-0.33788 0,-0.16023 0.0381,-0.29134 0.0847,-0.29134 0.0466,0 0.0847,-0.0934 0.0847,-0.20768 0,-0.31264 0.17736,-0.63898 0.34726,-0.63898 0.0829,0 0.1717,0.0339 0.19729,0.0753 0.0256,0.0414 0.17073,0.0959 0.3225,0.12096 0.45771,0.0757 0.77468,0.15121 0.95329,0.22706 0.0931,0.0395 0.28363,0.0959 0.42333,0.12522 0.1397,0.0293 0.38735,0.0809 0.55033,0.11459 0.26251,0.0543 0.29495,0.09 0.28415,0.31291 -0.0135,0.27791 -0.17481,0.94752 -0.2625,1.08941 -0.0308,0.0498 -0.0608,0.14838 -0.0666,0.21905 -0.0106,0.12735 -0.16232,0.62582 -0.3045,1.0003 -0.0406,0.10697 -0.0738,0.2857 -0.0738,0.39717 0,0.11148 -0.0381,0.22624 -0.0847,0.25502 -0.0466,0.0288 -0.0847,0.16213 -0.0847,0.29633 0,0.1342 -0.0339,0.26495 -0.0753,0.29055 -0.0414,0.0256 -0.0958,0.17073 -0.12089,0.3225 -0.0493,0.29833 -0.15962,0.75521 -0.31207,1.29195 -0.0529,0.18627 -0.11545,0.43392 -0.139,0.55033 -0.0236,0.11642 -0.0752,0.28787 -0.11473,0.381 -0.0395,0.0931 -0.0938,0.27411 -0.12063,0.40217 -0.0268,0.12806 -0.0706,0.33761 -0.0974,0.46567 -0.0268,0.12806 -0.0811,0.30903 -0.12062,0.40216 -0.0759,0.17861 -0.15135,0.49559 -0.22706,0.95329 -0.0251,0.15177 -0.0795,0.2969 -0.12096,0.3225 -0.0414,0.0256 -0.0753,0.17764 -0.0753,0.33788 0,0.16023 -0.0339,0.29133 -0.0754,0.29133 -0.0415,0 -0.0959,0.12383 -0.12088,0.27517 -0.025,0.15134 -0.0887,0.44662 -0.14147,0.65617 -0.0528,0.20955 -0.11749,0.4953 -0.14376,0.635 -0.0263,0.1397 -0.0774,0.2921 -0.11357,0.33866 -0.0362,0.0466 -0.079,0.19826 -0.0952,0.3371 -0.0217,0.18624 0.009,0.25991 0.11652,0.28094 0.10224,0.02 0.1906,-0.0746 0.29514,-0.31593 0.0821,-0.18944 0.17834,-0.34444 0.21392,-0.34444 0.0356,0 0.0647,-0.0762 0.0647,-0.16933 0,-0.0931 0.0286,-0.16963 0.0635,-0.17 0.0349,-3.3e-4 0.10544,-0.0861 0.15671,-0.1905 0.17533,-0.35712 0.49941,-0.95179 0.54179,-0.99417 0.0368,-0.0369 0.1526,-0.24396 0.54414,-0.97367 0.05,-0.0931 0.10991,-0.18838 0.13319,-0.21166 0.0508,-0.0508 0.4227,-0.727 0.54681,-0.99418 0.0485,-0.10441 0.11676,-0.19013 0.15169,-0.1905 0.0349,-3.3e-4 0.0635,-0.0769 0.0635,-0.16999 0,-0.0931 0.029,-0.16933 0.0644,-0.16933 0.0354,0 0.19552,-0.25718 0.35579,-0.5715 0.16028,-0.31433 0.33752,-0.62865 0.39387,-0.6985 0.0564,-0.0699 0.21919,-0.35279 0.36184,-0.62875 0.14265,-0.27596 0.28886,-0.52361 0.3249,-0.55033 0.036,-0.0267 0.23412,-0.37244 0.44017,-0.76826 0.20604,-0.39581 0.39654,-0.73871 0.42333,-0.762 0.0425,-0.0369 0.14834,-0.22415 0.55051,-0.97366 0.05,-0.0931 0.10991,-0.18839 0.13319,-0.21167 0.0369,-0.0369 0.1526,-0.24396 0.54414,-0.97367 0.05,-0.0931 0.10991,-0.18838 0.13319,-0.21166 0.0533,-0.0533 0.23207,-0.36641 0.45929,-0.80434 0.0966,-0.18626 0.19476,-0.35771 0.21805,-0.381 0.0507,-0.0507 0.4227,-0.72699 0.54681,-0.99417 0.0485,-0.10441 0.11676,-0.19014 0.15169,-0.1905 0.0349,-3.4e-4 0.0635,-0.0769 0.0635,-0.16999 0,-0.0931 0.0286,-0.16963 0.0635,-0.17 0.0349,-3.4e-4 0.10544,-0.0861 0.15671,-0.1905 0.17533,-0.35712 0.49941,-0.95179 0.54179,-0.99417 0.0532,-0.0532 0.23207,-0.36641 0.45928,-0.80433 0.0967,-0.18627 0.19477,-0.35772 0.21805,-0.381 0.0533,-0.0533 0.23207,-0.36641 0.45928,-0.80434 0.0966,-0.18626 0.19477,-0.35771 0.21805,-0.381 0.0725,-0.0725 0.32808,-0.5303 0.56714,-1.016 0.12607,-0.25611 0.25438,-0.48471 0.28514,-0.508 0.0308,-0.0233 0.21437,-0.34242 0.40802,-0.7092 0.19365,-0.36678 0.41962,-0.76683 0.50216,-0.889 0.0825,-0.12217 0.24009,-0.4031 0.35012,-0.6243 0.12442,-0.25013 0.256,-0.40216 0.34807,-0.40216 0.13134,0 0.816,0.31309 0.92602,0.42346 0.0233,0.0234 0.15663,0.0995 0.29633,0.1692 0.1397,0.0697 0.27305,0.14584 0.29634,0.1692 0.0932,0.0935 0.78503,0.42347 0.88782,0.42347 0.19179,0 0.24074,0.42709 0.0675,0.58853 -0.0847,0.0789 -0.22581,0.30266 -0.31352,0.49717 -0.0877,0.1945 -0.19178,0.35363 -0.23128,0.35363 -0.0395,0 -0.0718,0.0762 -0.0718,0.16934 0,0.0931 -0.0336,0.16933 -0.0748,0.16933 -0.0411,0 -0.096,0.0667 -0.122,0.14817 -0.0422,0.13238 -0.15667,0.34319 -0.79841,1.47006 -0.0958,0.16825 -0.22541,0.39685 -0.288,0.508 -0.0626,0.11116 -0.13285,0.22115 -0.15613,0.24444 -0.0424,0.0424 -0.36645,0.63704 -0.54179,0.99417 -0.0513,0.10441 -0.12178,0.19014 -0.15671,0.1905 -0.0349,3.4e-4 -0.0635,0.0737 -0.0635,0.16294 0,0.0892 -0.0286,0.17498 -0.0635,0.1905 -0.0795,0.0353 -0.35444,0.4863 -0.41726,0.68439 -0.0258,0.0815 -0.0806,0.14816 -0.12178,0.14816 -0.0411,0 -0.0748,0.073 -0.0748,0.16228 0,0.0892 -0.0286,0.17498 -0.0635,0.1905 -0.0795,0.0353 -0.35444,0.48631 -0.41727,0.68439 -0.0258,0.0815 -0.0806,0.14817 -0.12177,0.14817 -0.0411,0 -0.0748,0.073 -0.0748,0.16228 0,0.0892 -0.0286,0.17497 -0.0635,0.1905 -0.0571,0.0254 -0.31277,0.47049 -0.56295,0.98006 -0.0513,0.10441 -0.12179,0.19013 -0.15671,0.1905 -0.0349,3.4e-4 -0.0635,0.0769 -0.0635,0.16999 0,0.0931 -0.0337,0.16933 -0.0748,0.16933 -0.0411,0 -0.0959,0.0667 -0.12177,0.14817 -0.046,0.14507 -0.31236,0.61475 -0.3961,0.6985 -0.0424,0.0424 -0.36645,0.63705 -0.54179,0.99417 -0.0513,0.10442 -0.12178,0.19014 -0.15671,0.1905 -0.0349,3.4e-4 -0.0635,0.0769 -0.0635,0.17 0,0.0931 -0.0286,0.16963 -0.0635,0.16999 -0.0349,3.4e-4 -0.10555,0.0861 -0.15693,0.1905 -0.2052,0.41697 -0.63277,1.18958 -0.77644,1.40302 -0.0837,0.12439 -0.20746,0.34045 -0.27496,0.48015 -0.0675,0.1397 -0.26616,0.4928 -0.44145,0.78466 -0.17529,0.29186 -0.31872,0.54837 -0.31872,0.57001 0,0.0216 -0.1524,0.28834 -0.33867,0.59267 -0.18626,0.30432 -0.33866,0.57102 -0.33866,0.59266 0,0.0216 -0.14343,0.27815 -0.31872,0.57001 -0.1753,0.29186 -0.37532,0.64496 -0.4445,0.78466 -0.0692,0.1397 -0.21466,0.38735 -0.32328,0.55033 -0.10862,0.16299 -0.27187,0.44874 -0.36277,0.635 -0.0909,0.18627 -0.23756,0.45297 -0.3259,0.59267 -0.0883,0.1397 -0.23733,0.39408 -0.33112,0.56529 -0.30421,0.55533 -0.39063,0.70397 -0.43436,0.74704 -0.0651,0.0641 -0.50735,0.9044 -0.50735,0.96396 0,0.0286 0.0408,0.052 0.0907,0.052 0.0499,0 0.14787,0.0572 0.21772,0.127 0.0699,0.0699 0.15285,0.12614 0.18445,0.12508 0.0316,-0.001 1.99361,-1.92293 4.36002,-4.27081 3.04605,-3.02221 4.34109,-4.2541 4.43449,-4.21826 0.0726,0.0278 0.54623,0.46955 1.0526,0.98157 0.64567,0.65288 0.92067,0.99037 0.92067,1.12986 0,0.10939 -0.0365,0.1989 -0.0811,0.1989 -0.0446,0 -1.95567,1.86902 -4.24677,4.15338 -3.81701,3.80578 -4.1543,4.16471 -4.03028,4.28873 0.12403,0.12402 0.15304,0.12376 0.34669,-0.003 0.11624,-0.0762 0.34191,-0.21181 0.50148,-0.30144 0.15957,-0.0896 0.38108,-0.21417 0.49224,-0.27675 0.11115,-0.0626 0.22115,-0.13285 0.24443,-0.15613 0.0233,-0.0233 0.13328,-0.0935 0.24443,-0.15613 0.11116,-0.0626 0.33024,-0.18641 0.48684,-0.27517 0.1566,-0.0888 0.42761,-0.24203 0.60223,-0.34062 0.17463,-0.0986 0.41863,-0.25098 0.54224,-0.33866 0.1236,-0.0877 0.25009,-0.15942 0.28108,-0.15942 0.031,0 0.2156,-0.10594 0.41026,-0.23542 0.19465,-0.12949 0.46822,-0.29135 0.60792,-0.3597 0.1397,-0.0684 0.27305,-0.14339 0.29633,-0.16675 0.0233,-0.0234 0.12806,-0.0901 0.23284,-0.1483 0.10477,-0.0582 0.27622,-0.15346 0.381,-0.21167 0.10477,-0.0582 0.20955,-0.12488 0.23283,-0.14816 0.0233,-0.0233 0.13328,-0.0935 0.24443,-0.15613 0.11116,-0.0626 0.32501,-0.18283 0.47524,-0.26721 0.15022,-0.0844 0.36407,-0.20461 0.47523,-0.2672 0.11115,-0.0626 0.22115,-0.13291 0.24443,-0.15626 0.0233,-0.0234 0.15664,-0.0982 0.29634,-0.16629 0.1397,-0.0681 0.34925,-0.1874 0.46566,-0.26512 0.11642,-0.0777 0.34932,-0.21838 0.51757,-0.31258 0.64359,-0.36037 0.71129,-0.40008 0.75243,-0.44121 0.0416,-0.0416 0.14017,-0.0993 0.75244,-0.44032 0.16825,-0.0937 0.344,-0.20037 0.39056,-0.23702 0.0466,-0.0366 0.22755,-0.14688 0.40217,-0.24497 0.17463,-0.0981 0.44563,-0.25098 0.60223,-0.33973 0.1566,-0.0888 0.37568,-0.21258 0.48684,-0.27517 0.11115,-0.0626 0.22115,-0.13284 0.24443,-0.15613 0.0233,-0.0233 0.13328,-0.0935 0.24443,-0.15612 0.11116,-0.0626 0.32936,-0.18528 0.4849,-0.27263 0.15553,-0.0874 0.52178,-0.30657 0.8139,-0.48714 1.02177,-0.63161 2.11017,-1.27335 3.20767,-1.89131 0.11115,-0.0626 0.22115,-0.13563 0.24443,-0.16231 0.0233,-0.0267 0.0995,-0.0734 0.16934,-0.1039 0.0699,-0.0305 0.3175,-0.17225 0.55033,-0.31507 0.23283,-0.14282 0.49001,-0.28148 0.5715,-0.30814 0.0815,-0.0267 0.14817,-0.075 0.14817,-0.10745 0,-0.0324 0.13335,-0.11131 0.29633,-0.17526 0.16298,-0.064 0.29633,-0.14726 0.29633,-0.18514 0,-0.0379 0.0572,-0.0689 0.127,-0.0689 0.0699,0 0.127,-0.031 0.127,-0.0689 0,-0.0379 0.13335,-0.12119 0.29634,-0.18514 0.16298,-0.0639 0.29633,-0.14282 0.29633,-0.17526 0,-0.0325 0.0667,-0.0814 0.14817,-0.10888 0.15557,-0.0524 0.52827,-0.26218 0.90939,-0.5119 0.12436,-0.0815 0.27657,-0.1288 0.33822,-0.10514 0.0617,0.0237 0.39064,0.51233 0.73107,1.08593 0.34043,0.5736 0.64886,1.05562 0.68539,1.07114 0.0365,0.0155 0.0664,0.1584 0.0664,0.3175 0,0.20184 -0.0387,0.28928 -0.12815,0.28928 -0.11753,0 -0.44806,0.15287 -0.54919,0.254 -0.0233,0.0233 -0.13328,0.0935 -0.24443,0.15613 -0.11116,0.0626 -0.32501,0.18282 -0.47523,0.2672 -0.15023,0.0844 -0.36408,0.20462 -0.47524,0.2672 -0.11115,0.0626 -0.22115,0.13285 -0.24443,0.15613 -0.0416,0.0416 -0.14016,0.0993 -0.75243,0.44032 -0.16825,0.0937 -0.344,0.20037 -0.39057,0.23702 -0.0466,0.0366 -0.22754,0.14688 -0.40217,0.24497 -0.17462,0.0981 -0.46037,0.25862 -0.635,0.35672 -0.17462,0.0981 -0.3556,0.20833 -0.40216,0.24497 -0.0466,0.0367 -0.22754,0.14689 -0.40217,0.24498 -0.17462,0.0981 -0.44562,0.25097 -0.60223,0.33973 -0.1566,0.0888 -0.37568,0.21258 -0.48684,0.27517 -0.11115,0.0626 -0.22115,0.1329 -0.24443,0.15626 -0.0233,0.0234 -0.15663,0.0995 -0.29633,0.1692 -0.1397,0.0697 -0.27305,0.14584 -0.29634,0.1692 -0.0834,0.0837 -0.55316,0.35013 -0.6985,0.39622 -0.0815,0.0259 -0.14816,0.0762 -0.14816,0.11191 0,0.0357 -0.0667,0.0867 -0.14817,0.11338 -0.0815,0.0267 -0.33867,0.16614 -0.5715,0.30995 -0.23283,0.14382 -0.49001,0.2833 -0.5715,0.30996 -0.0815,0.0267 -0.14817,0.075 -0.14817,0.10745 0,0.0324 -0.13335,0.11131 -0.29633,0.17526 -0.16298,0.064 -0.29633,0.14282 -0.29633,0.17526 0,0.0324 -0.0667,0.0814 -0.14817,0.10888 -0.15376,0.0518 -0.52761,0.26175 -0.89714,0.50388 -0.20265,0.13278 -0.39609,0.24534 -1.13486,0.66034 -0.17462,0.0981 -0.3556,0.20833 -0.40217,0.24497 -0.0466,0.0366 -0.22754,0.14689 -0.40216,0.24498 -0.17463,0.0981 -0.44563,0.25097 -0.60224,0.33973 -0.1566,0.0888 -0.37567,0.21258 -0.48683,0.27517 -0.11115,0.0626 -0.22115,0.13609 -0.24443,0.16336 -0.0233,0.0273 -0.25189,0.1644 -0.508,0.30476 -0.25612,0.14036 -0.87819,0.50858 -1.38238,0.81827 -0.5042,0.30968 -0.93548,0.56307 -0.95842,0.56307 -0.0229,0 -0.20782,0.1143 -0.41087,0.254 -0.20305,0.1397 -0.39355,0.254 -0.42333,0.254 -0.0298,0 -0.21342,0.10788 -0.40808,0.23974 -0.19466,0.13186 -0.41107,0.26435 -0.48092,0.29441 -0.0699,0.0301 -0.3175,0.17151 -0.55034,0.31433 -0.23283,0.14282 -0.49,0.28148 -0.5715,0.30814 -0.0815,0.0267 -0.14816,0.075 -0.14816,0.10745 0,0.0324 -0.13335,0.11131 -0.29634,0.17526 -0.16298,0.064 -0.29633,0.14015 -0.29633,0.16933 0,0.0292 -0.13363,0.1055 -0.29694,0.16958 -0.24158,0.0948 -0.28698,0.14904 -0.24349,0.29097 0.0772,0.25181 0.0832,0.25375 0.45534,0.14581 0.1865,-0.0541 0.50102,-0.13904 0.69892,-0.18876 0.19791,-0.0497 0.47684,-0.12592 0.61985,-0.16933 0.143,-0.0434 0.34078,-0.0789 0.4395,-0.0789 0.0987,0 0.20304,-0.0381 0.23182,-0.0847 0.0288,-0.0466 0.18118,-0.0847 0.33867,-0.0847 0.15749,0 0.30989,-0.0381 0.33866,-0.0847 0.0288,-0.0466 0.18118,-0.0847 0.33867,-0.0847 0.15749,0 0.30989,-0.0381 0.33867,-0.0847 0.0288,-0.0466 0.18118,-0.0847 0.33866,-0.0847 0.15749,0 0.30729,-0.0339 0.33289,-0.0753 0.0256,-0.0414 0.17072,-0.0958 0.32249,-0.12089 0.15178,-0.0251 0.44741,-0.0895 0.65696,-0.14325 0.20955,-0.0537 0.52411,-0.11765 0.69903,-0.14206 0.17491,-0.0244 0.33909,-0.0785 0.36483,-0.1201 0.0257,-0.0417 0.17565,-0.0757 0.33314,-0.0757 0.15749,0 0.30989,-0.0381 0.33866,-0.0847 0.0288,-0.0466 0.16213,-0.0847 0.29634,-0.0847 0.1342,0 0.26755,-0.0381 0.29633,-0.0847 0.0288,-0.0466 0.18118,-0.0847 0.33867,-0.0847 0.15749,0 0.30989,-0.0381 0.33866,-0.0847 0.0288,-0.0466 0.18118,-0.0847 0.33867,-0.0847 0.15749,0 0.30989,-0.0381 0.33867,-0.0847 0.0288,-0.0466 0.18118,-0.0847 0.33866,-0.0847 0.15749,0 0.30989,-0.0381 0.33867,-0.0847 0.0288,-0.0466 0.18118,-0.0847 0.33867,-0.0847 0.15749,0 0.30989,-0.0381 0.33866,-0.0847 0.0288,-0.0466 0.18118,-0.0847 0.33867,-0.0847 0.15749,0 0.30989,-0.0381 0.33867,-0.0847 0.0288,-0.0466 0.2078,-0.0847 0.39783,-0.0847 0.40375,0 0.56913,0.16346 0.57314,0.5665 10e-4,0.1486 0.0408,0.29372 0.0874,0.3225 0.0466,0.0288 0.0847,0.18118 0.0847,0.33867 0,0.15748 0.0381,0.30988 0.0847,0.33866 0.0466,0.0288 0.0847,0.18118 0.0847,0.33867 0,0.15749 0.0381,0.30989 0.0847,0.33867 0.0466,0.0288 0.0847,0.20248 0.0847,0.38599 0,0.31282 -0.0156,0.33367 -0.249,0.33367 -0.13695,0 -0.27255,0.0381 -0.30133,0.0847 -0.0288,0.0466 -0.18118,0.0847 -0.33867,0.0847 -0.15748,0 -0.30728,0.0339 -0.33288,0.0753 -0.0439,0.0711 -0.25835,0.12104 -1.00115,0.23321 -0.17491,0.0264 -0.33909,0.0821 -0.36483,0.12375 -0.0257,0.0417 -0.17565,0.0757 -0.33314,0.0757 -0.15748,0 -0.30988,0.0381 -0.33866,0.0847 -0.0288,0.0466 -0.18118,0.0847 -0.33867,0.0847 -0.15749,0 -0.30989,0.0381 -0.33867,0.0847 -0.0288,0.0466 -0.16212,0.0847 -0.29633,0.0847 -0.1342,0 -0.26755,0.0381 -0.29633,0.0847 -0.0288,0.0466 -0.18118,0.0847 -0.33867,0.0847 -0.15749,0 -0.30989,0.0381 -0.33867,0.0847 -0.0288,0.0466 -0.18117,0.0847 -0.33866,0.0847 -0.15749,0 -0.30989,0.0381 -0.33867,0.0847 -0.0288,0.0466 -0.18118,0.0847 -0.33867,0.0847 -0.15748,0 -0.30988,0.0381 -0.33866,0.0847 -0.0288,0.0466 -0.18118,0.0847 -0.33867,0.0847 -0.15749,0 -0.30989,0.0381 -0.33867,0.0847 -0.0288,0.0466 -0.18117,0.0847 -0.33866,0.0847 -0.15749,0 -0.30989,0.0381 -0.33867,0.0847 -0.0288,0.0466 -0.18118,0.0847 -0.33867,0.0847 -0.15748,0 -0.30988,0.0381 -0.33866,0.0847 -0.0288,0.0466 -0.18118,0.0847 -0.33867,0.0847 -0.15749,0 -0.30989,0.0381 -0.33867,0.0847 -0.0288,0.0466 -0.18117,0.0847 -0.33866,0.0847 -0.15749,0 -0.30989,0.0381 -0.33867,0.0847 -0.0288,0.0466 -0.1331,0.0847 -0.23182,0.0847 -0.0987,0 -0.2965,0.0355 -0.4395,0.0789 -0.14301,0.0434 -0.42194,0.12571 -0.61985,0.18289 -0.37468,0.10825 -0.40057,0.13564 -0.29107,0.30801 0.0774,0.12191 3.42743,0.17047 16.29307,0.23621 l 8.27617,0.0423 v 1.5244 1.52439 l -8.3185,-0.0435 c -4.57517,-0.0239 -10.04769,-0.053 -12.16115,-0.0647 l -3.84265,-0.0213 -0.0273,0.33867 c -0.015,0.18626 -0.0512,0.51205 -0.0804,0.72396 -0.0492,0.35724 -0.0368,0.3927 0.16977,0.48684 0.12255,0.0558 0.295,0.10153 0.38318,0.10153 0.0882,0 0.18391,0.0381 0.21269,0.0847 0.0288,0.0466 0.16213,0.0847 0.29633,0.0847 0.13421,0 0.26756,0.0381 0.29633,0.0847 0.0288,0.0466 0.16213,0.0847 0.29634,0.0847 0.1342,0 0.26755,0.0381 0.29633,0.0847 0.0288,0.0466 0.14308,0.0847 0.254,0.0847 0.11092,0 0.22522,0.0381 0.254,0.0847 0.0288,0.0466 0.16213,0.0847 0.29633,0.0847 0.13421,0 0.26756,0.0381 0.29634,0.0847 0.0288,0.0466 0.16213,0.0847 0.29633,0.0847 0.13421,0 0.26756,0.0381 0.29633,0.0847 0.0288,0.0466 0.16213,0.0847 0.29634,0.0847 0.1342,0 0.26755,0.0381 0.29633,0.0847 0.0288,0.0466 0.16438,0.0847 0.30133,0.0847 0.13696,0 0.249,0.0381 0.249,0.0847 0,0.0466 0.11205,0.0847 0.24901,0.0847 0.13695,0 0.27255,0.0381 0.30133,0.0847 0.0288,0.0466 0.16213,0.0847 0.29633,0.0847 0.13421,0 0.26756,0.0381 0.29633,0.0847 0.0288,0.0466 0.14585,0.0847 0.26015,0.0847 0.1143,0 0.27397,0.0344 0.35484,0.0764 0.0809,0.042 0.31846,0.12195 0.52801,0.17759 0.20955,0.0556 0.44716,0.13556 0.52802,0.17759 0.0809,0.042 0.22426,0.0764 0.31865,0.0764 0.0944,0 0.23779,0.0344 0.31865,0.0764 0.0809,0.042 0.31847,0.12195 0.52802,0.17759 0.20955,0.0557 0.44716,0.13556 0.52801,0.17759 0.0809,0.042 0.24054,0.0764 0.35484,0.0764 0.1143,0 0.23137,0.0381 0.26015,0.0847 0.0288,0.0466 0.16213,0.0847 0.29633,0.0847 0.13421,0 0.26756,0.0381 0.29633,0.0847 0.0288,0.0466 0.12043,0.0847 0.20366,0.0847 0.40771,0 0.84415,0.39986 0.60068,0.55033 -0.0466,0.0288 -0.0847,0.1268 -0.0847,0.21782 0,0.091 -0.0334,0.23164 -0.0743,0.3125 -0.12358,0.24461 -0.2644,0.74056 -0.2644,0.9312 0,0.0987 -0.0381,0.20304 -0.0847,0.23182 -0.0466,0.0288 -0.0847,0.12042 -0.0847,0.20365 0,0.27288 -0.2585,0.68535 -0.42953,0.68535 -0.0897,0 -0.16314,-0.0381 -0.16314,-0.0847 0,-0.0466 -0.11204,-0.0847 -0.249,-0.0847 -0.13695,0 -0.27255,-0.0381 -0.30133,-0.0847 -0.0288,-0.0466 -0.16213,-0.0847 -0.29633,-0.0847 -0.13421,0 -0.26756,-0.0381 -0.29634,-0.0847 -0.0288,-0.0466 -0.14584,-0.0847 -0.26014,-0.0847 -0.1143,0 -0.27398,-0.0344 -0.35484,-0.0764 -0.0809,-0.042 -0.31847,-0.12194 -0.52802,-0.17758 -0.20955,-0.0557 -0.44715,-0.13556 -0.52801,-0.17759 -0.0809,-0.042 -0.24054,-0.0764 -0.35484,-0.0764 -0.1143,0 -0.23137,-0.0381 -0.26015,-0.0847 -0.0288,-0.0466 -0.16212,-0.0847 -0.29633,-0.0847 -0.1342,0 -0.26755,-0.0381 -0.29633,-0.0847 -0.0288,-0.0466 -0.14308,-0.0847 -0.254,-0.0847 -0.11092,0 -0.22522,-0.0381 -0.254,-0.0847 -0.0288,-0.0466 -0.16213,-0.0847 -0.29634,-0.0847 -0.1342,0 -0.26755,-0.0381 -0.29633,-0.0847 -0.0288,-0.0466 -0.14585,-0.0847 -0.26015,-0.0847 -0.1143,0 -0.27397,-0.0344 -0.35483,-0.0764 -0.0809,-0.042 -0.31847,-0.12194 -0.52802,-0.17759 -0.20955,-0.0556 -0.44716,-0.13556 -0.52801,-0.17759 -0.0809,-0.042 -0.24054,-0.0764 -0.35484,-0.0764 -0.1143,0 -0.23137,-0.0381 -0.26015,-0.0847 -0.0288,-0.0466 -0.16213,-0.0847 -0.29633,-0.0847 -0.13421,0 -0.26756,-0.0381 -0.29634,-0.0847 -0.0288,-0.0466 -0.14307,-0.0847 -0.254,-0.0847 -0.11092,0 -0.22522,-0.0381 -0.254,-0.0847 -0.0288,-0.0466 -0.16212,-0.0847 -0.29633,-0.0847 -0.1342,0 -0.26755,-0.0381 -0.29633,-0.0847 -0.0288,-0.0466 -0.14585,-0.0847 -0.26015,-0.0847 -0.1143,0 -0.27397,-0.0344 -0.35484,-0.0764 -0.0808,-0.042 -0.31846,-0.12195 -0.52801,-0.17759 -0.20955,-0.0556 -0.44716,-0.13556 -0.52802,-0.17759 -0.19883,-0.10334 -0.23398,-0.0968 -0.23398,0.0435 0,0.066 -0.0476,0.13779 -0.10584,0.15961 -0.11634,0.0436 0.0736,0.22057 0.4445,0.41407 0.11642,0.0607 0.23072,0.12954 0.254,0.1529 0.0396,0.0397 0.23178,0.15265 0.635,0.37319 0.0931,0.0509 0.18839,0.11166 0.21167,0.13495 0.0411,0.0411 0.10885,0.0808 0.75243,0.4412 0.16825,0.0942 0.40115,0.23759 0.51757,0.31864 0.11642,0.081 0.25106,0.1623 0.29921,0.18058 0.091,0.0345 1.86021,1.11842 2.45246,1.50243 0.18626,0.12078 0.49106,0.30221 0.67733,0.40318 0.18627,0.10098 0.66252,0.38331 1.05833,0.62742 0.39582,0.2441 0.85302,0.51939 1.016,0.61176 0.16299,0.0924 0.39747,0.23969 0.52108,0.32737 0.1236,0.0877 0.26648,0.15942 0.3175,0.15942 0.051,0 0.0928,0.0336 0.0928,0.0748 0,0.0411 0.0667,0.0959 0.14816,0.12178 0.14507,0.046 0.61476,0.31235 0.6985,0.39609 0.0411,0.0411 0.10885,0.0808 0.75244,0.44121 0.16825,0.0942 0.40703,0.24303 0.53064,0.33071 0.1236,0.0877 0.25009,0.15942 0.28107,0.15942 0.031,0 0.22247,0.1143 0.42552,0.254 0.20305,0.1397 0.39355,0.254 0.42333,0.254 0.0298,0 0.22029,0.1143 0.42334,0.254 0.20305,0.1397 0.40994,0.254 0.45975,0.254 0.0498,0 0.0906,0.0337 0.0906,0.0748 0,0.0411 0.0667,0.0959 0.14817,0.12178 0.14507,0.046 0.61475,0.31235 0.6985,0.39609 0.0233,0.0233 0.11853,0.084 0.21166,0.13495 0.40256,0.22018 0.59544,0.33349 0.635,0.37305 0.0411,0.0411 0.10885,0.0808 0.75244,0.44121 0.16825,0.0942 0.40703,0.24303 0.53064,0.33071 0.1236,0.0877 0.26648,0.15942 0.3175,0.15942 0.051,0 0.0928,0.0336 0.0928,0.0748 0,0.0411 0.0667,0.0959 0.14816,0.12178 0.14507,0.046 0.61476,0.31235 0.6985,0.39609 0.0233,0.0233 0.12806,0.09 0.23284,0.14817 0.10477,0.0582 0.27622,0.15346 0.381,0.21167 0.10477,0.0582 0.20955,0.12488 0.23283,0.14816 0.0233,0.0233 0.12806,0.09 0.23283,0.14817 0.10478,0.0582 0.27623,0.15346 0.381,0.21167 0.10478,0.0582 0.20955,0.12488 0.23284,0.14816 0.0233,0.0233 0.12806,0.09 0.23283,0.14817 0.10478,0.0582 0.27623,0.15346 0.381,0.21167 0.10478,0.0582 0.20955,0.12488 0.23283,0.14816 0.10113,0.10113 0.43166,0.254 0.54919,0.254 0.15973,0 0.17605,0.46669 0.0223,0.63811 -0.19695,0.21963 -0.27465,0.33558 -0.48051,0.71704 -0.11295,0.20929 -0.22725,0.39957 -0.254,0.42285 -0.0268,0.0233 -0.14178,0.21379 -0.25559,0.42334 -0.31536,0.58059 -0.39335,0.63893 -0.66627,0.4984 -0.1251,-0.0644 -0.24651,-0.13624 -0.26979,-0.1596 -0.0233,-0.0234 -0.12806,-0.0901 -0.23284,-0.1483 -0.10477,-0.0582 -0.27622,-0.15346 -0.381,-0.21167 -0.10477,-0.0582 -0.20955,-0.12488 -0.23283,-0.14817 -0.0233,-0.0233 -0.12806,-0.0899 -0.23283,-0.14816 -0.10478,-0.0582 -0.27623,-0.15346 -0.381,-0.21167 -0.10478,-0.0582 -0.20955,-0.12488 -0.23284,-0.14817 -0.0233,-0.0233 -0.12805,-0.0899 -0.23283,-0.14816 -0.10477,-0.0582 -0.27622,-0.15346 -0.381,-0.21167 -0.10477,-0.0582 -0.20955,-0.12488 -0.23283,-0.14817 -0.0838,-0.0837 -0.55343,-0.35008 -0.6985,-0.39609 -0.0815,-0.0258 -0.14817,-0.0806 -0.14817,-0.12178 0,-0.0411 -0.0408,-0.0748 -0.0906,-0.0748 -0.0498,0 -0.2567,-0.1143 -0.45975,-0.254 -0.20305,-0.1397 -0.39453,-0.254 -0.42552,-0.254 -0.031,0 -0.15747,-0.0717 -0.28108,-0.15933 -0.1236,-0.0876 -0.3806,-0.24956 -0.5711,-0.35983 -0.31672,-0.18335 -1.97825,-1.19691 -2.72881,-1.66463 -0.17132,-0.10675 -0.37817,-0.21597 -0.45966,-0.2427 -0.0815,-0.0267 -0.14817,-0.0822 -0.14817,-0.12339 0,-0.0411 -0.0408,-0.0748 -0.0906,-0.0748 -0.0498,0 -0.25671,-0.1143 -0.45976,-0.254 -0.20305,-0.1397 -0.39453,-0.254 -0.42552,-0.254 -0.031,0 -0.15747,-0.0717 -0.28107,-0.15942 -0.12361,-0.0877 -0.36239,-0.2365 -0.53064,-0.33071 -0.64359,-0.36036 -0.7113,-0.40006 -0.75244,-0.4412 -0.0233,-0.0233 -0.12805,-0.09 -0.23283,-0.14817 -0.10477,-0.0582 -0.27622,-0.15346 -0.381,-0.21167 -0.10477,-0.0582 -0.20955,-0.12488 -0.23283,-0.14816 -0.0233,-0.0233 -0.12806,-0.09 -0.23284,-0.14817 -0.10477,-0.0582 -0.27622,-0.15346 -0.381,-0.21167 -0.10477,-0.0582 -0.20955,-0.12488 -0.23283,-0.14816 -0.0396,-0.0396 -0.23244,-0.15288 -0.635,-0.37305 -0.0931,-0.051 -0.18838,-0.11167 -0.21167,-0.13495 -0.0396,-0.0396 -0.23244,-0.15288 -0.635,-0.37305 -0.0931,-0.051 -0.18838,-0.11167 -0.21166,-0.13495 -0.0233,-0.0233 -0.12806,-0.09 -0.23284,-0.14817 -0.10477,-0.0582 -0.27622,-0.15346 -0.381,-0.21167 -0.10477,-0.0582 -0.20955,-0.12488 -0.23283,-0.14816 -0.0837,-0.0837 -0.55343,-0.35009 -0.6985,-0.3961 -0.0815,-0.0258 -0.14817,-0.0806 -0.14817,-0.12178 0,-0.0411 -0.0408,-0.0748 -0.0906,-0.0748 -0.0498,0 -0.25671,-0.1143 -0.45976,-0.254 -0.20305,-0.1397 -0.40994,-0.254 -0.45976,-0.254 -0.0498,0 -0.0906,-0.031 -0.0906,-0.0689 0,-0.0379 -0.13335,-0.12118 -0.29634,-0.18513 -0.16298,-0.0639 -0.29633,-0.14282 -0.29633,-0.17526 0,-0.0324 -0.0667,-0.0801 -0.14817,-0.10598 -0.14506,-0.046 -0.61475,-0.31235 -0.6985,-0.39609 -0.0233,-0.0233 -0.12805,-0.09 -0.23283,-0.14817 -0.10477,-0.0582 -0.27622,-0.15346 -0.381,-0.21167 -0.10477,-0.0582 -0.20955,-0.12488 -0.23283,-0.14816 -0.0838,-0.0838 -0.55344,-0.35009 -0.6985,-0.3961 -0.0815,-0.0258 -0.14817,-0.0806 -0.14817,-0.12178 0,-0.16292 -0.13713,-0.0538 -0.33452,0.26615 -0.11414,0.18502 -0.23796,0.33639 -0.27516,0.33639 -0.18338,0 -0.008,0.25786 0.59871,0.88158 0.36649,0.37661 0.81417,0.85572 0.99483,1.06466 0.18066,0.20896 0.63707,0.70426 1.01423,1.10067 0.37717,0.39642 0.83437,0.89204 1.016,1.10138 0.18164,0.20934 0.50889,0.56357 0.72724,0.78716 0.21834,0.22361 0.63744,0.68044 0.93133,1.0152 0.29389,0.33474 0.70579,0.78309 0.91534,0.99631 0.20955,0.21322 0.62865,0.67095 0.93133,1.01719 0.30269,0.34623 0.57891,0.64222 0.61384,0.65774 0.18423,0.0819 0.0143,0.40626 -0.42008,0.80161 -0.26596,0.24209 -0.69458,0.63994 -0.9525,0.88411 -0.60938,0.57692 -0.74147,0.61736 -1.00536,0.30774 -0.11423,-0.13402 -0.59638,-0.66278 -1.07142,-1.17501 -0.47504,-0.51224 -1.03152,-1.12019 -1.2366,-1.351 -0.20508,-0.23082 -0.56338,-0.61816 -0.79621,-0.86076 -0.23283,-0.2426 -0.63288,-0.67787 -0.889,-0.96728 -0.25612,-0.28941 -0.64988,-0.72122 -0.87504,-0.95958 -0.22515,-0.23836 -0.7014,-0.75323 -1.05833,-1.14415 -0.35693,-0.39092 -0.83946,-0.91183 -1.0723,-1.15756 -0.23283,-0.24573 -0.47936,-0.52596 -0.54786,-0.62273 -0.14563,-0.20578 -0.16419,-0.2084 -0.37023,-0.0523 -0.14895,0.11286 -0.14151,0.14466 0.1628,0.69581 0.56548,1.02417 0.77196,1.40816 1.22107,2.27087 0.24243,0.46567 0.47211,0.88528 0.51041,0.93248 0.0383,0.0472 0.34309,0.61869 0.6773,1.27 0.33422,0.6513 0.64479,1.22976 0.69018,1.28547 0.0454,0.0557 0.32074,0.57006 0.6119,1.143 0.55031,1.0829 0.74034,1.43562 0.8121,1.50738 0.0986,0.0986 0.254,0.43027 0.254,0.54213 0,0.0666 0.0286,0.13379 0.0635,0.14932 0.0349,0.0155 0.14923,0.19015 0.254,0.38805 0.10478,0.19791 0.27623,0.52176 0.381,0.71967 0.10478,0.19791 0.21908,0.37253 0.254,0.38805 0.0349,0.0155 0.0635,0.0746 0.0635,0.1313 0,0.15023 0.2009,0.55872 0.27517,0.55949 0.0349,0 0.0635,0.0737 0.0635,0.16294 0,0.0892 0.0286,0.17497 0.0635,0.1905 0.0349,0.0155 0.14922,0.19015 0.254,0.38805 0.10477,0.19791 0.27622,0.52176 0.381,0.71967 0.10477,0.19791 0.21907,0.37253 0.254,0.38805 0.0349,0.0155 0.0635,0.10126 0.0635,0.1905 0,0.0893 0.0381,0.16228 0.0847,0.16228 0.0466,0 0.0847,0.0762 0.0847,0.16934 0,0.0931 0.0381,0.16933 0.0847,0.16933 0.0466,0 0.0847,0.073 0.0847,0.16228 0,0.0893 0.0286,0.17497 0.0635,0.1905 0.0349,0.0155 0.14923,0.19015 0.254,0.38805 0.10478,0.19791 0.27623,0.52176 0.381,0.71967 0.10478,0.19791 0.21908,0.37253 0.254,0.38805 0.0349,0.0155 0.0635,0.10126 0.0635,0.1905 0,0.0893 0.0381,0.16228 0.0847,0.16228 0.0466,0 0.0847,0.073 0.0847,0.16228 0,0.0892 0.0286,0.17498 0.0635,0.1905 0.0662,0.0294 0.23419,0.33123 0.81685,1.46756 0.19103,0.37253 0.37589,0.69003 0.41081,0.70555 0.0349,0.0155 0.0635,0.0981 0.0635,0.18345 0,0.0854 0.0286,0.16792 0.0635,0.18344 0.0552,0.0245 0.64887,1.111 0.90563,1.6574 0.0491,0.10441 0.11778,0.19013 0.15271,0.1905 0.0349,0 0.0635,0.0902 0.0635,0.19966 0,0.16084 -0.10959,0.25412 -0.5715,0.48646 -0.31433,0.15811 -0.5842,0.3162 -0.59972,0.35133 -0.0155,0.0351 -0.10125,0.0639 -0.1905,0.0639 -0.0893,0 -0.16228,0.0288 -0.16228,0.064 0,0.0352 -0.12383,0.11739 -0.27517,0.18264 -0.15134,0.0652 -0.38199,0.19289 -0.51255,0.28367 -0.21742,0.15116 -0.24985,0.15375 -0.38564,0.0309 -0.0815,-0.0738 -0.20092,-0.26835 -0.26526,-0.43234 -0.0643,-0.16399 -0.14798,-0.29816 -0.18585,-0.29816 -0.0379,0 -0.0689,-0.0762 -0.0689,-0.16933 0,-0.0931 -0.0381,-0.16934 -0.0847,-0.16934 -0.0466,0 -0.0847,-0.0762 -0.0847,-0.16933 0,-0.0931 -0.0381,-0.16933 -0.0847,-0.16933 -0.0466,0 -0.0847,-0.073 -0.0847,-0.16228 0,-0.0893 -0.0286,-0.17497 -0.0635,-0.1905 -0.0349,-0.0155 -0.15449,-0.19967 -0.2657,-0.40922 -0.40244,-0.75836 -1.22408,-2.3327 -1.31422,-2.51818 -0.0507,-0.10441 -0.12082,-0.19013 -0.15575,-0.1905 -0.0349,0 -0.0635,-0.0737 -0.0635,-0.16294 0,-0.0892 -0.0286,-0.17497 -0.0635,-0.1905 -0.0349,-0.0155 -0.21979,-0.33302 -0.41081,-0.70555 -0.58266,-1.13633 -0.75065,-1.43813 -0.81686,-1.46755 -0.0349,-0.0155 -0.0635,-0.0981 -0.0635,-0.18345 0,-0.0854 -0.029,-0.16792 -0.0644,-0.18345 -0.0354,-0.0155 -0.22111,-0.33302 -0.41267,-0.70555 -0.61819,-1.2022 -0.74944,-1.43882 -0.81411,-1.46755 -0.0349,-0.0155 -0.0635,-0.0981 -0.0635,-0.18345 0,-0.0854 -0.0286,-0.16792 -0.0635,-0.18345 -0.0647,-0.0287 -0.20437,-0.27611 -0.70925,-1.25588 -0.15597,-0.30269 -0.34119,-0.59675 -0.41159,-0.65348 -0.0704,-0.0567 -0.0948,-0.10435 -0.0541,-0.10583 0.0406,-0.001 0.0348,-0.0503 -0.0129,-0.10853 -0.0477,-0.0582 -0.32355,-0.56303 -0.613,-1.12183 -0.28946,-0.5588 -0.57894,-1.07615 -0.64331,-1.14966 -0.0644,-0.0735 -0.11703,-0.18972 -0.11703,-0.25824 0,-0.0685 -0.0357,-0.16076 -0.0794,-0.205 -0.0436,-0.0442 -0.31558,-0.53763 -0.60432,-1.09643 -0.28874,-0.5588 -0.55783,-1.0287 -0.59798,-1.04422 -0.0402,-0.0155 -0.073,-0.10126 -0.073,-0.1905 0,-0.0893 -0.0381,-0.16228 -0.0847,-0.16228 -0.0466,0 -0.0847,-0.0762 -0.0847,-0.16934 0,-0.0931 -0.0381,-0.16933 -0.0847,-0.16933 -0.0466,0 -0.0847,-0.073 -0.0847,-0.16228 0,-0.0892 -0.0286,-0.17497 -0.0635,-0.1905 -0.0349,-0.0155 -0.19646,-0.2854 -0.35894,-0.59972 -0.16249,-0.31433 -0.32442,-0.5715 -0.35983,-0.5715 -0.0354,0 -0.0644,-0.0496 -0.0644,-0.11012 0,-0.15577 -0.19913,-0.56577 -0.27517,-0.56655 -0.0349,0 -0.0635,-0.0737 -0.0635,-0.16294 0,-0.0892 -0.03,-0.17498 -0.0666,-0.1905 -0.0366,-0.0155 -0.17226,-0.24621 -0.30137,-0.51263 -0.19212,-0.39642 -0.26076,-0.47112 -0.37789,-0.41127 -0.0787,0.0402 -0.2479,0.11451 -0.37596,0.16509 -0.22796,0.09 -0.32121,0.36964 -0.15711,0.47106 0.0417,0.0257 0.0973,0.18991 0.12375,0.36483 0.0264,0.17492 0.0709,0.47043 0.0989,0.6567 0.028,0.18626 0.084,0.41486 0.12448,0.508 0.0761,0.17493 0.14562,0.51412 0.22566,1.10066 0.0254,0.18627 0.0804,0.37487 0.1222,0.4191 0.0418,0.0442 0.076,0.24427 0.076,0.4445 0,0.20024 0.0343,0.36407 0.0761,0.36407 0.0419,0 0.0973,0.16193 0.12308,0.35983 0.0974,0.74692 0.15217,1.04227 0.2236,1.2065 0.0405,0.0931 0.0936,0.28364 0.11796,0.42334 0.0244,0.1397 0.0862,0.4445 0.13746,0.67733 0.0512,0.23283 0.11246,0.55668 0.13604,0.71967 0.0236,0.16298 0.076,0.37253 0.11654,0.46566 0.0405,0.0931 0.0967,0.30269 0.12495,0.46567 0.0282,0.16298 0.0902,0.48683 0.13775,0.71967 0.0475,0.23283 0.10708,0.58526 0.13232,0.78316 0.0252,0.19791 0.0763,0.35984 0.1135,0.35984 0.0372,0 0.0871,0.16192 0.11098,0.35983 0.0239,0.19791 0.0702,0.46461 0.10306,0.59267 0.0507,0.1979 0.0336,0.23283 -0.11451,0.23283 -0.0958,0 -0.19776,0.0381 -0.22653,0.0847 -0.0288,0.0466 -0.20023,0.0847 -0.381,0.0847 -0.18078,0 -0.35223,0.0381 -0.381,0.0847 -0.0288,0.0466 -0.18594,0.0847 -0.34924,0.0847 -0.16329,0 -0.36107,0.0333 -0.43949,0.0741 -0.0784,0.0407 -0.35704,0.10003 -0.61913,0.1318 l -0.47651,0.0577 -0.0567,-0.27998 c -0.0312,-0.15398 -0.0763,-0.41332 -0.10023,-0.5763 -0.024,-0.16298 -0.0767,-0.37253 -0.11722,-0.46567 -0.0405,-0.0931 -0.0967,-0.30268 -0.12495,-0.46566 -0.0282,-0.16299 -0.0902,-0.48684 -0.13774,-0.71967 -0.0475,-0.23283 -0.10709,-0.58526 -0.13233,-0.78317 -0.0252,-0.1979 -0.0763,-0.35983 -0.11349,-0.35983 -0.0372,0 -0.0877,-0.16192 -0.11233,-0.35983 -0.0246,-0.19791 -0.0856,-0.54081 -0.13553,-0.762 -0.0499,-0.22119 -0.12891,-0.57362 -0.17548,-0.78317 -0.0466,-0.20955 -0.12276,-0.55245 -0.16933,-0.762 -0.0466,-0.20955 -0.1258,-0.56197 -0.17607,-0.78317 -0.0503,-0.22119 -0.1111,-0.58314 -0.13517,-0.80433 -0.0241,-0.22119 -0.0744,-0.40217 -0.11174,-0.40217 -0.0374,0 -0.0909,-0.17145 -0.11883,-0.381 -0.028,-0.20955 -0.0737,-0.55245 -0.10172,-0.762 -0.028,-0.20955 -0.0813,-0.381 -0.11847,-0.381 -0.0372,0 -0.0893,-0.16192 -0.11578,-0.35983 -0.16676,-1.24579 -0.19882,-1.3335 -0.48725,-1.3335 -0.16922,0 -0.18968,0.16377 -0.16027,1.28268 0.007,0.2631 -0.0281,0.50346 -0.0777,0.53417 -0.0605,0.0374 -0.0903,0.83222 -0.0903,2.40455 0,1.29181 -0.0344,2.38493 -0.0763,2.42917 -0.042,0.0442 -0.099,1.07103 -0.12658,2.28176 -0.0276,1.21074 -0.0876,3.26814 -0.13323,4.572 -0.0457,1.30387 -0.12247,3.49462 -0.1707,4.86834 -0.0482,1.37371 -0.11135,3.30729 -0.14027,4.29683 l -0.0526,1.79917 h -1.56768 -1.56767 z"
       id="path957"
       inkscape:connector-curvature="0" />
  </g>
</svg>
